<svg width="636" height="311" viewBox="0 0 636 311" fill="none" xmlns="http://www.w3.org/2000/svg">
<path d="M110.87 107.647H69.8536V303.67H110.87V107.647Z" fill="#333333"/>
<path d="M99.5592 97.7095H80.9155V108.765H99.5592V97.7095Z" fill="#333333"/>
<path d="M95.7062 91.2498H84.8929V97.5851H95.7062V91.2498Z" fill="#333333"/>
<path d="M89.6159 107.274L90.3617 0.443359L90.9832 107.274H89.6159Z" fill="#333333"/>
<path opacity="0.09" d="M92.4746 122.43H88.1245V126.777H92.4746V122.43Z" fill="white"/>
<path opacity="0.33" d="M92.4746 136.218H88.1245V140.566H92.4746V136.218Z" fill="white"/>
<path opacity="0.37" d="M92.4746 150.131H88.1245V154.479H92.4746V150.131Z" fill="white"/>
<path opacity="0.14" d="M92.4746 163.92H88.1245V168.268H92.4746V163.92Z" fill="white"/>
<path opacity="0.3" d="M92.4746 177.833H88.1245V182.181H92.4746V177.833Z" fill="white"/>
<path opacity="0.16" d="M92.4746 191.621H88.1245V195.969H92.4746V191.621Z" fill="white"/>
<path opacity="0.34" d="M92.4746 205.534H88.1245V209.882H92.4746V205.534Z" fill="white"/>
<path opacity="0.29" d="M92.4746 219.323H88.1245V223.671H92.4746V219.323Z" fill="white"/>
<path opacity="0.12" d="M92.4746 233.236H88.1245V237.584H92.4746V233.236Z" fill="white"/>
<path d="M35.9221 151.995H-92.595V323.049H35.9221V151.995Z" fill="#4D4D4D"/>
<path d="M2.23921 159.075H-4.5968V165.907H2.23921V159.075Z" fill="white"/>
<path d="M11.3125 159.075H4.47644V165.907H11.3125V159.075Z" fill="white"/>
<path d="M2.23921 168.019H-4.5968V174.852H2.23921V168.019Z" fill="white"/>
<path d="M11.3125 168.019H4.47644V174.852H11.3125V168.019Z" fill="white"/>
<path d="M2.23921 176.963H-4.5968V183.796H2.23921V176.963Z" fill="white"/>
<path d="M11.3125 176.963H4.47644V183.796H11.3125V176.963Z" fill="white"/>
<path d="M2.23921 185.783H-4.5968V192.615H2.23921V185.783Z" fill="white"/>
<path d="M11.3125 185.783H4.47644V192.615H11.3125V185.783Z" fill="white"/>
<path d="M2.23921 194.727H-4.5968V201.559H2.23921V194.727Z" fill="white"/>
<path d="M11.3125 194.727H4.47644V201.559H11.3125V194.727Z" fill="white"/>
<path d="M2.23921 203.671H-4.5968V210.503H2.23921V203.671Z" fill="white"/>
<path d="M11.3125 203.671H4.47644V210.503H11.3125V203.671Z" fill="white"/>
<path d="M2.23921 212.615H-4.5968V219.447H2.23921V212.615Z" fill="white"/>
<path d="M11.3125 212.615H4.47644V219.447H11.3125V212.615Z" fill="white"/>
<path d="M2.23921 221.559H-4.5968V228.391H2.23921V221.559Z" fill="white"/>
<path d="M11.3125 221.559H4.47644V228.391H11.3125V221.559Z" fill="white"/>
<path d="M2.23921 230.379H-4.5968V237.211H2.23921V230.379Z" fill="white"/>
<path d="M11.3125 230.379H4.47644V237.211H11.3125V230.379Z" fill="white"/>
<path d="M2.23921 239.323H-4.5968V246.155H2.23921V239.323Z" fill="white"/>
<path d="M11.3125 239.323H4.47644V246.155H11.3125V239.323Z" fill="white"/>
<path d="M2.23921 248.267H-4.5968V255.099H2.23921V248.267Z" fill="white"/>
<path d="M11.3125 248.267H4.47644V255.099H11.3125V248.267Z" fill="white"/>
<path d="M2.23921 257.211H-4.5968V264.043H2.23921V257.211Z" fill="white"/>
<path d="M11.3125 257.211H4.47644V264.043H11.3125V257.211Z" fill="white"/>
<path d="M2.23921 266.155H-4.5968V272.987H2.23921V266.155Z" fill="white"/>
<path d="M11.3125 266.155H4.47644V272.987H11.3125V266.155Z" fill="white"/>
<path d="M2.23921 274.975H-4.5968V281.807H2.23921V274.975Z" fill="white"/>
<path d="M11.3125 274.975H4.47644V281.807H11.3125V274.975Z" fill="white"/>
<path d="M20.3858 274.975H13.5497V281.807H20.3858V274.975Z" fill="white"/>
<path d="M2.23921 283.919H-4.5968V290.751H2.23921V283.919Z" fill="white"/>
<path d="M11.3125 283.919H4.47644V290.751H11.3125V283.919Z" fill="white"/>
<path d="M20.3858 283.919H13.5497V290.751H20.3858V283.919Z" fill="white"/>
<path d="M2.23921 292.863H-4.5968V299.695H2.23921V292.863Z" fill="white"/>
<path d="M11.3125 292.863H4.47644V299.695H11.3125V292.863Z" fill="white"/>
<path d="M20.3858 292.863H13.5497V299.695H20.3858V292.863Z" fill="white"/>
<path d="M2.23921 301.807H-4.5968V308.639H2.23921V301.807Z" fill="white"/>
<path d="M11.3125 301.807H4.47644V308.639H11.3125V301.807Z" fill="white"/>
<path d="M20.3858 301.807H13.5497V308.639H20.3858V301.807Z" fill="white"/>
<path d="M2.23921 310.75H-4.5968V317.583H2.23921V310.75Z" fill="white"/>
<path d="M11.3125 310.75H4.47644V317.583H11.3125V310.75Z" fill="white"/>
<path d="M20.3858 310.75H13.5497V317.583H20.3858V310.75Z" fill="white"/>
<path d="M16.9056 134.604H-73.5784V151.995H16.9056V134.604Z" fill="#4D4D4D"/>
<path opacity="0.19" d="M20.3858 159.075H13.5497V165.907H20.3858V159.075Z" fill="white"/>
<path opacity="0.24" d="M20.3858 168.019H13.5497V174.851H20.3858V168.019Z" fill="white"/>
<path opacity="0.29" d="M20.3858 176.963H13.5497V183.795H20.3858V176.963Z" fill="white"/>
<path opacity="0.39" d="M20.3858 185.783H13.5497V192.615H20.3858V185.783Z" fill="white"/>
<path opacity="0.21" d="M20.3858 194.727H13.5497V201.559H20.3858V194.727Z" fill="white"/>
<path opacity="0.48" d="M20.3858 203.671H13.5497V210.503H20.3858V203.671Z" fill="white"/>
<path opacity="0.32" d="M20.3858 212.615H13.5497V219.447H20.3858V212.615Z" fill="white"/>
<path opacity="0.13" d="M20.3858 221.559H13.5497V228.391H20.3858V221.559Z" fill="white"/>
<path opacity="0.19" d="M20.3858 230.379H13.5497V237.211H20.3858V230.379Z" fill="white"/>
<path opacity="0.03" d="M20.3858 239.323H13.5497V246.155H20.3858V239.323Z" fill="white"/>
<path opacity="0.36" d="M20.3858 248.267H13.5497V255.099H20.3858V248.267Z" fill="white"/>
<path opacity="0.25" d="M20.3858 257.211H13.5497V264.043H20.3858V257.211Z" fill="white"/>
<path d="M20.3858 266.155H13.5497V272.987H20.3858V266.155Z" fill="white"/>
<path d="M296.436 229.633H255.42V325.657H296.436V229.633Z" fill="#333333"/>
<path d="M274.064 224.789H255.42V230.254H274.064V224.789Z" fill="#333333"/>
<path d="M266.234 221.683H255.42V224.789H266.234V221.683Z" fill="#333333"/>
<path opacity="0.06" d="M279.284 236.341H272.573V241.31H279.284V236.341Z" fill="white"/>
<path opacity="0.12" d="M279.284 248.639H272.573V253.608H279.284V248.639Z" fill="white"/>
<path opacity="0.19" d="M279.284 273.235H272.573V278.204H279.284V273.235Z" fill="white"/>
<path opacity="0.14" d="M279.284 297.831H272.573V302.8H279.284V297.831Z" fill="white"/>
<path opacity="0.1" d="M279.284 310.129H272.573V315.098H279.284V310.129Z" fill="white"/>
<path d="M193.523 240.068H137.344V291.496H193.523V240.068Z" fill="#333333"/>
<path d="M184.699 235.472H146.293V257.583H184.699V235.472Z" fill="#333333"/>
<path d="M197.625 272.49H141.445V323.918H197.625V272.49Z" fill="#333333"/>
<path d="M188.676 267.894H150.27V290.005H188.676V267.894Z" fill="#333333"/>
<path d="M272.448 265.658H216.269V324.912H272.448V265.658Z" fill="#333333"/>
<path d="M263.624 260.44H225.218V286.03H263.624V260.44Z" fill="#333333"/>
<path d="M460.501 283.67H404.321V340.937H460.501V283.67Z" fill="#333333"/>
<path d="M451.676 278.577H413.27V303.297H451.676V278.577Z" fill="#333333"/>
<path d="M338.695 165.41H275.928V324.788H338.695V165.41Z" fill="#333333"/>
<path opacity="0.46" d="M294.199 172.615H279.036V175.473H294.199V172.615Z" fill="#E6E6E6"/>
<path opacity="0.34" d="M314.956 172.615H299.792V175.473H314.956V172.615Z" fill="#E6E6E6"/>
<path opacity="0.52" d="M335.588 172.615H320.425V175.473H335.588V172.615Z" fill="#E6E6E6"/>
<path opacity="0.54" d="M294.199 179.199H279.036V182.056H294.199V179.199Z" fill="#E6E6E6"/>
<path opacity="0.3" d="M314.956 179.199H299.792V182.056H314.956V179.199Z" fill="#E6E6E6"/>
<path opacity="0.06" d="M335.588 179.199H320.425V182.056H335.588V179.199Z" fill="#E6E6E6"/>
<path opacity="0.15" d="M294.199 185.783H279.036V188.64H294.199V185.783Z" fill="#E6E6E6"/>
<path opacity="0.42" d="M314.956 185.783H299.792V188.64H314.956V185.783Z" fill="#E6E6E6"/>
<path opacity="0.48" d="M335.588 185.783H320.425V188.64H335.588V185.783Z" fill="#E6E6E6"/>
<path opacity="0.18" d="M294.199 192.367H279.036V195.224H294.199V192.367Z" fill="#E6E6E6"/>
<path opacity="0.28" d="M335.588 192.367H320.425V195.224H335.588V192.367Z" fill="#E6E6E6"/>
<path opacity="0.29" d="M294.199 198.95H279.036V201.808H294.199V198.95Z" fill="#E6E6E6"/>
<path opacity="0.28" d="M314.956 198.95H299.792V201.808H314.956V198.95Z" fill="#E6E6E6"/>
<path opacity="0.56" d="M335.588 198.95H320.425V201.808H335.588V198.95Z" fill="#E6E6E6"/>
<path opacity="0.41" d="M294.199 205.534H279.036V208.392H294.199V205.534Z" fill="#E6E6E6"/>
<path opacity="0.16" d="M314.956 205.534H299.792V208.392H314.956V205.534Z" fill="#E6E6E6"/>
<path opacity="0.4" d="M335.588 205.534H320.425V208.392H335.588V205.534Z" fill="#E6E6E6"/>
<path opacity="0.1" d="M294.199 212.118H279.036V214.975H294.199V212.118Z" fill="#E6E6E6"/>
<path opacity="0.17" d="M314.956 212.118H299.792V214.975H314.956V212.118Z" fill="#E6E6E6"/>
<path opacity="0.08" d="M335.588 212.118H320.425V214.975H335.588V212.118Z" fill="#E6E6E6"/>
<path opacity="0.49" d="M294.199 218.702H279.036V221.559H294.199V218.702Z" fill="#E6E6E6"/>
<path opacity="0.58" d="M314.956 218.702H299.792V221.559H314.956V218.702Z" fill="#E6E6E6"/>
<path opacity="0.58" d="M335.588 218.702H320.425V221.559H335.588V218.702Z" fill="#E6E6E6"/>
<path opacity="0.26" d="M294.199 225.286H279.036V228.143H294.199V225.286Z" fill="#E6E6E6"/>
<path opacity="0.37" d="M314.956 225.286H299.792V228.143H314.956V225.286Z" fill="#E6E6E6"/>
<path opacity="0.34" d="M335.588 225.286H320.425V228.143H335.588V225.286Z" fill="#E6E6E6"/>
<path opacity="0.55" d="M294.199 231.869H279.036V234.727H294.199V231.869Z" fill="#E6E6E6"/>
<path opacity="0.12" d="M314.956 231.869H299.792V234.727H314.956V231.869Z" fill="#E6E6E6"/>
<path opacity="0.6" d="M335.588 231.869H320.425V234.727H335.588V231.869Z" fill="#E6E6E6"/>
<path opacity="0.02" d="M294.199 238.453H279.036V241.31H294.199V238.453Z" fill="#E6E6E6"/>
<path opacity="0.28" d="M314.956 238.453H299.792V241.31H314.956V238.453Z" fill="#E6E6E6"/>
<path opacity="0.21" d="M335.588 238.453H320.425V241.31H335.588V238.453Z" fill="#E6E6E6"/>
<path opacity="0.57" d="M294.199 245.037H279.036V247.894H294.199V245.037Z" fill="#E6E6E6"/>
<path opacity="0.38" d="M314.956 245.037H299.792V247.894H314.956V245.037Z" fill="#E6E6E6"/>
<path opacity="0.25" d="M335.588 245.037H320.425V247.894H335.588V245.037Z" fill="#E6E6E6"/>
<path opacity="0.15" d="M294.199 251.621H279.036V254.478H294.199V251.621Z" fill="#E6E6E6"/>
<path opacity="0.47" d="M314.956 251.621H299.792V254.478H314.956V251.621Z" fill="#E6E6E6"/>
<path opacity="0.3" d="M335.588 251.621H320.425V254.478H335.588V251.621Z" fill="#E6E6E6"/>
<path opacity="0.4" d="M294.199 258.205H279.036V261.062H294.199V258.205Z" fill="#E6E6E6"/>
<path opacity="0.39" d="M314.956 258.205H299.792V261.062H314.956V258.205Z" fill="#E6E6E6"/>
<path opacity="0.24" d="M335.588 258.205H320.425V261.062H335.588V258.205Z" fill="#E6E6E6"/>
<path opacity="0.46" d="M294.199 264.788H279.036V267.646H294.199V264.788Z" fill="#E6E6E6"/>
<path opacity="0.22" d="M314.956 264.788H299.792V267.646H314.956V264.788Z" fill="#E6E6E6"/>
<path opacity="0.11" d="M335.588 264.788H320.425V267.646H335.588V264.788Z" fill="#E6E6E6"/>
<path opacity="0.11" d="M314.956 271.372H299.792V274.229H314.956V271.372Z" fill="#E6E6E6"/>
<path opacity="0.02" d="M335.588 271.372H320.425V274.229H335.588V271.372Z" fill="#E6E6E6"/>
<path opacity="0.27" d="M294.199 277.956H279.036V280.813H294.199V277.956Z" fill="#E6E6E6"/>
<path opacity="0.21" d="M314.956 277.956H299.792V280.813H314.956V277.956Z" fill="#E6E6E6"/>
<path opacity="0.49" d="M335.588 277.956H320.425V280.813H335.588V277.956Z" fill="#E6E6E6"/>
<path opacity="0.6" d="M294.199 284.54H279.036V287.397H294.199V284.54Z" fill="#E6E6E6"/>
<path opacity="0.31" d="M314.956 284.54H299.792V287.397H314.956V284.54Z" fill="#E6E6E6"/>
<path opacity="0.22" d="M335.588 284.54H320.425V287.397H335.588V284.54Z" fill="#E6E6E6"/>
<path opacity="0.54" d="M294.199 291.124H279.036V293.981H294.199V291.124Z" fill="#E6E6E6"/>
<path opacity="0.6" d="M314.956 291.124H299.792V293.981H314.956V291.124Z" fill="#E6E6E6"/>
<path opacity="0.08" d="M335.588 291.124H320.425V293.981H335.588V291.124Z" fill="#E6E6E6"/>
<path opacity="0.55" d="M314.956 297.707H299.792V300.564H314.956V297.707Z" fill="#E6E6E6"/>
<path d="M335.588 297.707H320.425V300.564H335.588V297.707Z" fill="#E6E6E6"/>
<path opacity="0.6" d="M295.194 172.615H294.199V300.564H295.194V172.615Z" fill="#E6E6E6"/>
<path opacity="0.6" d="M320.425 172.615H319.43V300.564H320.425V172.615Z" fill="#E6E6E6"/>
<path d="M370.017 165.41H338.695V324.788H370.017V165.41Z" fill="#4D4D4D"/>
<path opacity="0.69" d="M365.418 172.615H341.803V175.473H365.418V172.615Z" fill="#E6E6E6"/>
<path opacity="0.79" d="M365.418 179.199H341.803V182.056H365.418V179.199Z" fill="#E6E6E6"/>
<path opacity="0.19" d="M365.418 185.783H341.803V188.64H365.418V185.783Z" fill="#E6E6E6"/>
<path opacity="0.88" d="M365.418 192.367H341.803V195.224H365.418V192.367Z" fill="#E6E6E6"/>
<path opacity="0.5" d="M365.418 198.95H341.803V201.808H365.418V198.95Z" fill="#E6E6E6"/>
<path opacity="0.25" d="M365.418 205.534H341.803V208.392H365.418V205.534Z" fill="#E6E6E6"/>
<path opacity="0.91" d="M365.418 212.118H341.803V214.975H365.418V212.118Z" fill="#E6E6E6"/>
<path opacity="0.02" d="M365.418 218.702H341.803V221.559H365.418V218.702Z" fill="#E6E6E6"/>
<path opacity="0.53" d="M365.418 225.286H341.803V228.143H365.418V225.286Z" fill="#E6E6E6"/>
<path opacity="0.65" d="M365.418 231.869H341.803V234.727H365.418V231.869Z" fill="#E6E6E6"/>
<path d="M365.418 238.453H341.803V241.31H365.418V238.453Z" fill="#E6E6E6"/>
<path opacity="0.8" d="M365.418 245.037H341.803V247.894H365.418V245.037Z" fill="#E6E6E6"/>
<path opacity="0.82" d="M365.418 251.621H341.803V254.478H365.418V251.621Z" fill="#E6E6E6"/>
<path opacity="0.75" d="M365.418 258.205H341.803V261.062H365.418V258.205Z" fill="#E6E6E6"/>
<path opacity="0.31" d="M365.418 264.788H341.803V267.646H365.418V264.788Z" fill="#E6E6E6"/>
<path opacity="0.22" d="M365.418 271.372H341.803V274.229H365.418V271.372Z" fill="#E6E6E6"/>
<path opacity="0.43" d="M365.418 277.956H341.803V280.813H365.418V277.956Z" fill="#E6E6E6"/>
<path opacity="0.68" d="M365.418 284.54H341.803V287.397H365.418V284.54Z" fill="#E6E6E6"/>
<path opacity="0.38" d="M365.418 291.124H341.803V293.981H365.418V291.124Z" fill="#E6E6E6"/>
<path opacity="0.84" d="M365.418 297.707H341.803V300.564H365.418V297.707Z" fill="#E6E6E6"/>
<path d="M286.99 156.963V165.41H327.634V156.963H286.99ZM296.064 162.678H291.838V159.82H296.064V162.678ZM302.651 162.678H298.549V159.82H302.651V162.678ZM309.363 162.678H305.261V159.82H309.363V162.678ZM316.074 162.678H311.849V159.82H316.074V162.678ZM322.786 162.678H318.56V159.82H322.786V162.678Z" fill="#333333"/>
<path d="M335.091 159.821H333.972V162.678H335.091V159.821Z" fill="#333333"/>
<path d="M327.634 156.963V165.41H346.774V156.963H327.634ZM335.091 162.678H330.989V159.82H335.091V162.678ZM343.916 162.678H339.814V159.82H343.916V162.678Z" fill="#4D4D4D"/>
<path d="M343.791 159.821H342.673V162.678H343.791V159.821Z" fill="#333333"/>
<path d="M347.023 335.595H262.505L347.023 273.235V335.595Z" fill="#333333"/>
<path d="M220.992 131.622H214.156V157.585H220.992V131.622Z" fill="#4D4D4D"/>
<path d="M214.28 131.622H207.32V157.585H214.28V131.622Z" fill="#333333"/>
<path d="M228.076 131.622H221.116V157.585H228.076V131.622Z" fill="#666666"/>
<path d="M248.212 175.348H228.822V323.421H248.212V175.348Z" fill="#666666"/>
<path d="M206.077 175.348H189.173V323.421H206.077V175.348Z" fill="#333333"/>
<path d="M228.822 175.348H205.953V323.421H228.822V175.348Z" fill="#4D4D4D"/>
<path opacity="0.6" d="M194.021 179.696H191.535V321.434H194.021V179.696Z" fill="#E6E6E6"/>
<path opacity="0.6" d="M198.868 179.696H196.382V321.434H198.868V179.696Z" fill="#E6E6E6"/>
<path opacity="0.6" d="M203.715 179.696H201.229V321.434H203.715V179.696Z" fill="#E6E6E6"/>
<path d="M232.675 179.696H230.189V321.434H232.675V179.696Z" fill="#E6E6E6"/>
<path d="M237.522 179.696H235.037V321.434H237.522V179.696Z" fill="#E6E6E6"/>
<path d="M246.969 179.696H244.483V321.434H246.969V179.696Z" fill="#E6E6E6"/>
<path d="M242.37 179.696H239.884V321.434H242.37V179.696Z" fill="#E6E6E6"/>
<path opacity="0.8" d="M208.811 321.434H225.963V179.696H208.811V321.434ZM211.546 182.18H223.229V318.949H211.546V182.18Z" fill="#E6E6E6"/>
<path opacity="0.8" d="M213.783 316.589H221.116V184.417H213.783V316.589ZM216.269 187.522H217.139H217.636H218.63V313.483H217.636H217.139H216.269V187.522Z" fill="#E6E6E6"/>
<path opacity="0.8" d="M217.636 187.522H217.139V313.483H217.636V187.522Z" fill="#E6E6E6"/>
<path d="M226.212 149.386H209.06V175.348H226.212V149.386Z" fill="#4D4D4D"/>
<path d="M226.212 149.386H209.06V175.348H226.212V149.386Z" fill="#4D4D4D"/>
<path d="M243.364 149.386H226.212V175.348H243.364V149.386Z" fill="#666666"/>
<path d="M209.06 149.386H191.908V175.348H209.06V149.386Z" fill="#333333"/>
<path d="M227.952 131.622H207.32L214.156 136.342H221.116L227.952 131.622Z" fill="#808080"/>
<path d="M596.724 122.057H586.781V151.249H596.724V122.057Z" fill="#4D4D4D"/>
<path d="M586.656 122.057H576.713V151.249H586.656V122.057Z" fill="#333333"/>
<path d="M606.667 122.057H596.724V151.249H606.667V122.057Z" fill="#666666"/>
<path d="M636 171.373H607.91V338.203H636V171.373Z" fill="#666666"/>
<path d="M574.849 171.373H550.488V338.203H574.849V171.373Z" fill="#333333"/>
<path d="M607.91 171.373H574.849V338.203H607.91V171.373Z" fill="#4D4D4D"/>
<path opacity="0.4" d="M557.448 176.342H553.844V335.968H557.448V176.342Z" fill="#E6E6E6"/>
<path opacity="0.4" d="M564.533 176.342H560.928V335.968H564.533V176.342Z" fill="#E6E6E6"/>
<path opacity="0.4" d="M571.617 176.342H568.013V335.968H571.617V176.342Z" fill="#E6E6E6"/>
<path d="M613.503 176.342H609.899V335.968H613.503V176.342Z" fill="#E6E6E6"/>
<path d="M620.588 176.342H616.983V335.968H620.588V176.342Z" fill="#E6E6E6"/>
<path d="M634.136 176.342H630.531V335.968H634.136V176.342Z" fill="#E6E6E6"/>
<path d="M627.548 176.342H623.944V335.968H627.548V176.342Z" fill="#E6E6E6"/>
<path d="M579.075 335.968H603.933V176.342H579.075V335.968ZM582.928 179.075H599.831V333.235H582.928V179.075Z" fill="#E6E6E6"/>
<path d="M586.035 330.626H596.724V181.684H586.035V330.626ZM589.764 185.162H591.131H591.752H593.12V327.148H591.752H591.131H589.764V185.162Z" fill="#E6E6E6"/>
<path d="M591.752 185.162H591.131V327.148H591.752V185.162Z" fill="#E6E6E6"/>
<path d="M604.181 142.181H579.323V171.373H604.181V142.181Z" fill="#4D4D4D"/>
<path d="M604.181 142.181H579.323V171.373H604.181V142.181Z" fill="#4D4D4D"/>
<path d="M629.04 142.181H604.181V171.373H629.04V142.181Z" fill="#666666"/>
<path d="M579.448 142.181H554.589V171.373H579.448V142.181Z" fill="#333333"/>
<path d="M606.792 122.057H576.713L586.781 127.398H596.724L606.792 122.057Z" fill="#808080"/>
<path d="M525.008 194.479H457.021V217.087H525.008V194.479Z" fill="#E6E6E6"/>
<path d="M483.743 194.479H457.021V217.087H483.743V194.479Z" fill="#B3B3B3"/>
<path d="M483.743 217.211H430.92V327.024H483.743V217.211Z" fill="#333333"/>
<path d="M566.273 217.211H483.743V327.024H566.273V217.211Z" fill="#4D4D4D"/>
<path d="M477.28 206.031H436.637V217.211H477.28V206.031Z" fill="#333333"/>
<path d="M553.968 206.031H495.924V217.211H553.968V206.031Z" fill="#4D4D4D"/>
<path d="M506.986 185.907H483.743V194.479H506.986V185.907Z" fill="#E6E6E6"/>
<path d="M495.302 177.212H483.743V185.783H495.302V177.212Z" fill="#4D4D4D"/>
<path d="M483.619 177.212H472.06V185.783H483.619V177.212Z" fill="#333333"/>
<path d="M483.743 185.907H465.97V194.479H483.743V185.907Z" fill="#B3B3B3"/>
<path d="M482.998 177.212L483.743 157.336L484.365 177.212H482.998Z" fill="#333333"/>
<path opacity="0.12" d="M447.575 221.683H443.224V226.031H447.575V221.683Z" fill="white"/>
<path opacity="0.25" d="M453.541 221.683H449.19V226.031H453.541V221.683Z" fill="white"/>
<path opacity="0.36" d="M459.506 221.683H455.156V226.031H459.506V221.683Z" fill="white"/>
<path opacity="0.12" d="M465.472 221.683H461.122V226.031H465.472V221.683Z" fill="white"/>
<path opacity="0.14" d="M471.438 221.683H467.088V226.031H471.438V221.683Z" fill="white"/>
<path opacity="0.28" d="M447.575 227.398H443.224V231.745H447.575V227.398Z" fill="white"/>
<path opacity="0.4" d="M453.541 227.398H449.19V231.745H453.541V227.398Z" fill="white"/>
<path opacity="0.16" d="M459.506 227.398H455.156V231.745H459.506V227.398Z" fill="white"/>
<path opacity="0.17" d="M471.438 227.398H467.088V231.745H471.438V227.398Z" fill="white"/>
<path opacity="0.27" d="M447.575 233.112H443.224V237.46H447.575V233.112Z" fill="white"/>
<path opacity="0.45" d="M453.541 233.112H449.19V237.46H453.541V233.112Z" fill="white"/>
<path opacity="0.45" d="M459.506 233.112H455.156V237.46H459.506V233.112Z" fill="white"/>
<path opacity="0.48" d="M465.472 233.112H461.122V237.46H465.472V233.112Z" fill="white"/>
<path opacity="0.25" d="M471.438 233.112H467.088V237.46H471.438V233.112Z" fill="white"/>
<path opacity="0.28" d="M447.575 238.826H443.224V243.174H447.575V238.826Z" fill="white"/>
<path opacity="0.13" d="M453.541 238.826H449.19V243.174H453.541V238.826Z" fill="white"/>
<path opacity="0.07" d="M459.506 238.826H455.156V243.174H459.506V238.826Z" fill="white"/>
<path opacity="0.39" d="M465.472 238.826H461.122V243.174H465.472V238.826Z" fill="white"/>
<path opacity="0.47" d="M471.438 238.826H467.088V243.174H471.438V238.826Z" fill="white"/>
<path opacity="0.28" d="M447.575 244.54H443.224V248.888H447.575V244.54Z" fill="white"/>
<path opacity="0.2" d="M453.541 244.54H449.19V248.888H453.541V244.54Z" fill="white"/>
<path opacity="0.04" d="M459.506 244.54H455.156V248.888H459.506V244.54Z" fill="white"/>
<path opacity="0.43" d="M465.472 244.54H461.122V248.888H465.472V244.54Z" fill="white"/>
<path opacity="0.48" d="M471.438 244.54H467.088V248.888H471.438V244.54Z" fill="white"/>
<path opacity="0.28" d="M447.575 250.254H443.224V254.602H447.575V250.254Z" fill="white"/>
<path opacity="0.19" d="M453.541 250.254H449.19V254.602H453.541V250.254Z" fill="white"/>
<path opacity="0.01" d="M459.506 250.254H455.156V254.602H459.506V250.254Z" fill="white"/>
<path opacity="0.27" d="M465.472 250.254H461.122V254.602H465.472V250.254Z" fill="white"/>
<path opacity="0.24" d="M471.438 250.254H467.088V254.602H471.438V250.254Z" fill="white"/>
<path opacity="0.07" d="M447.575 256.093H443.224V260.441H447.575V256.093Z" fill="white"/>
<path opacity="0.25" d="M453.541 256.093H449.19V260.441H453.541V256.093Z" fill="white"/>
<path opacity="0.26" d="M459.506 256.093H455.156V260.441H459.506V256.093Z" fill="white"/>
<path opacity="0.39" d="M465.472 256.093H461.122V260.441H465.472V256.093Z" fill="white"/>
<path opacity="0.22" d="M471.438 256.093H467.088V260.441H471.438V256.093Z" fill="white"/>
<path opacity="0.15" d="M447.575 261.807H443.224V266.155H447.575V261.807Z" fill="white"/>
<path opacity="0.23" d="M453.541 261.807H449.19V266.155H453.541V261.807Z" fill="white"/>
<path opacity="0.05" d="M459.506 261.807H455.156V266.155H459.506V261.807Z" fill="white"/>
<path opacity="0.2" d="M465.472 261.807H461.122V266.155H465.472V261.807Z" fill="white"/>
<path opacity="0.31" d="M471.438 261.807H467.088V266.155H471.438V261.807Z" fill="white"/>
<path opacity="0.15" d="M447.575 267.521H443.224V271.869H447.575V267.521Z" fill="white"/>
<path opacity="0.33" d="M453.541 267.521H449.19V271.869H453.541V267.521Z" fill="white"/>
<path opacity="0.46" d="M459.506 267.521H455.156V271.869H459.506V267.521Z" fill="white"/>
<path opacity="0.25" d="M465.472 267.521H461.122V271.869H465.472V267.521Z" fill="white"/>
<path opacity="0.43" d="M471.438 267.521H467.088V271.869H471.438V267.521Z" fill="white"/>
<path opacity="0.4" d="M447.575 273.236H443.224V277.583H447.575V273.236Z" fill="white"/>
<path opacity="0.39" d="M453.541 273.236H449.19V277.583H453.541V273.236Z" fill="white"/>
<path opacity="0.01" d="M459.506 273.236H455.156V277.583H459.506V273.236Z" fill="white"/>
<path opacity="0.12" d="M465.472 273.236H461.122V277.583H465.472V273.236Z" fill="white"/>
<path opacity="0.07" d="M471.438 273.236H467.088V277.583H471.438V273.236Z" fill="white"/>
<path opacity="0.07" d="M447.575 278.95H443.224V283.298H447.575V278.95Z" fill="white"/>
<path opacity="0.02" d="M453.541 278.95H449.19V283.298H453.541V278.95Z" fill="white"/>
<path opacity="0.12" d="M459.506 278.95H455.156V283.298H459.506V278.95Z" fill="white"/>
<path opacity="0.23" d="M465.472 278.95H461.122V283.298H465.472V278.95Z" fill="white"/>
<path opacity="0.26" d="M471.438 278.95H467.088V283.298H471.438V278.95Z" fill="white"/>
<path opacity="0.27" d="M447.575 284.664H443.224V289.012H447.575V284.664Z" fill="white"/>
<path opacity="0.38" d="M453.541 284.664H449.19V289.012H453.541V284.664Z" fill="white"/>
<path opacity="0.05" d="M459.506 284.664H455.156V289.012H459.506V284.664Z" fill="white"/>
<path opacity="0.45" d="M465.472 284.664H461.122V289.012H465.472V284.664Z" fill="white"/>
<path opacity="0.15" d="M471.438 284.664H467.088V289.012H471.438V284.664Z" fill="white"/>
<path opacity="0.06" d="M447.575 290.378H443.224V294.726H447.575V290.378Z" fill="white"/>
<path opacity="0.47" d="M453.541 290.378H449.19V294.726H453.541V290.378Z" fill="white"/>
<path opacity="0.15" d="M459.506 290.378H455.156V294.726H459.506V290.378Z" fill="white"/>
<path opacity="0.44" d="M465.472 290.378H461.122V294.726H465.472V290.378Z" fill="white"/>
<path opacity="0.14" d="M471.438 290.378H467.088V294.726H471.438V290.378Z" fill="white"/>
<path opacity="0.15" d="M447.575 296.093H443.224V300.44H447.575V296.093Z" fill="white"/>
<path opacity="0.43" d="M453.541 296.093H449.19V300.44H453.541V296.093Z" fill="white"/>
<path opacity="0.07" d="M459.506 296.093H455.156V300.44H459.506V296.093Z" fill="white"/>
<path opacity="0.47" d="M465.472 296.093H461.122V300.44H465.472V296.093Z" fill="white"/>
<path opacity="0.11" d="M471.438 296.093H467.088V300.44H471.438V296.093Z" fill="white"/>
<path opacity="0.07" d="M447.575 301.807H443.224V306.154H447.575V301.807Z" fill="white"/>
<path opacity="0.34" d="M453.541 301.807H449.19V306.154H453.541V301.807Z" fill="white"/>
<path opacity="0.5" d="M459.506 301.807H455.156V306.154H459.506V301.807Z" fill="white"/>
<path opacity="0.36" d="M465.472 301.807H461.122V306.154H465.472V301.807Z" fill="white"/>
<path opacity="0.34" d="M471.438 301.807H467.088V306.154H471.438V301.807Z" fill="white"/>
<path opacity="0.47" d="M447.575 307.521H443.224V311.869H447.575V307.521Z" fill="white"/>
<path opacity="0.41" d="M453.541 307.521H449.19V311.869H453.541V307.521Z" fill="white"/>
<path opacity="0.3" d="M459.506 307.521H455.156V311.869H459.506V307.521Z" fill="white"/>
<path opacity="0.33" d="M465.472 307.521H461.122V311.869H465.472V307.521Z" fill="white"/>
<path opacity="0.12" d="M471.438 307.521H467.088V311.869H471.438V307.521Z" fill="white"/>
<path opacity="0.3" d="M498.161 221.683H493.811V226.031H498.161V221.683Z" fill="white"/>
<path opacity="0.72" d="M503.878 221.683H499.528V226.031H503.878V221.683Z" fill="white"/>
<path opacity="0.7" d="M509.72 221.683H505.37V226.031H509.72V221.683Z" fill="white"/>
<path opacity="0.52" d="M515.562 221.683H511.212V226.031H515.562V221.683Z" fill="white"/>
<path opacity="0.2" d="M521.404 221.683H517.053V226.031H521.404V221.683Z" fill="white"/>
<path opacity="0.32" d="M527.121 221.683H522.771V226.031H527.121V221.683Z" fill="white"/>
<path opacity="0.13" d="M532.963 221.683H528.612V226.031H532.963V221.683Z" fill="white"/>
<path opacity="0.38" d="M538.804 221.683H534.454V226.031H538.804V221.683Z" fill="white"/>
<path opacity="0.61" d="M544.522 221.683H540.172V226.031H544.522V221.683Z" fill="white"/>
<path d="M550.363 221.683H546.013V226.031H550.363V221.683Z" fill="white"/>
<path opacity="0.91" d="M556.205 221.683H551.855V226.031H556.205V221.683Z" fill="white"/>
<path opacity="0.66" d="M498.161 227.398H493.811V231.745H498.161V227.398Z" fill="white"/>
<path opacity="0.31" d="M503.878 227.398H499.528V231.745H503.878V227.398Z" fill="white"/>
<path opacity="0.95" d="M509.72 227.398H505.37V231.745H509.72V227.398Z" fill="white"/>
<path opacity="0.7" d="M515.562 227.398H511.212V231.745H515.562V227.398Z" fill="white"/>
<path opacity="0.12" d="M521.404 227.398H517.053V231.745H521.404V227.398Z" fill="white"/>
<path opacity="0.24" d="M527.121 227.398H522.771V231.745H527.121V227.398Z" fill="white"/>
<path opacity="0.66" d="M532.963 227.398H528.612V231.745H532.963V227.398Z" fill="white"/>
<path opacity="0.71" d="M538.804 227.398H534.454V231.745H538.804V227.398Z" fill="white"/>
<path opacity="0.42" d="M544.522 227.398H540.172V231.745H544.522V227.398Z" fill="white"/>
<path opacity="0.09" d="M550.363 227.398H546.013V231.745H550.363V227.398Z" fill="white"/>
<path opacity="0.32" d="M556.205 227.398H551.855V231.745H556.205V227.398Z" fill="white"/>
<path opacity="0.65" d="M498.161 233.112H493.811V237.46H498.161V233.112Z" fill="white"/>
<path d="M503.878 233.112H499.528V237.46H503.878V233.112Z" fill="white"/>
<path d="M509.72 233.112H505.37V237.46H509.72V233.112Z" fill="white"/>
<path opacity="0.71" d="M515.562 233.112H511.212V237.46H515.562V233.112Z" fill="white"/>
<path opacity="0.2" d="M521.404 233.112H517.053V237.46H521.404V233.112Z" fill="white"/>
<path opacity="0.19" d="M527.121 233.112H522.771V237.46H527.121V233.112Z" fill="white"/>
<path opacity="0.62" d="M532.963 233.112H528.612V237.46H532.963V233.112Z" fill="white"/>
<path opacity="0.93" d="M538.804 233.112H534.454V237.46H538.804V233.112Z" fill="white"/>
<path opacity="0.56" d="M544.522 233.112H540.172V237.46H544.522V233.112Z" fill="white"/>
<path opacity="0.57" d="M550.363 233.112H546.013V237.46H550.363V233.112Z" fill="white"/>
<path opacity="0.52" d="M556.205 233.112H551.855V237.46H556.205V233.112Z" fill="white"/>
<path opacity="0.74" d="M498.161 238.826H493.811V243.174H498.161V238.826Z" fill="white"/>
<path opacity="0.56" d="M503.878 238.826H499.528V243.174H503.878V238.826Z" fill="white"/>
<path opacity="0.78" d="M509.72 238.826H505.37V243.174H509.72V238.826Z" fill="white"/>
<path opacity="0.41" d="M515.562 238.826H511.212V243.174H515.562V238.826Z" fill="white"/>
<path opacity="0.14" d="M521.404 238.826H517.053V243.174H521.404V238.826Z" fill="white"/>
<path opacity="0.28" d="M527.121 238.826H522.771V243.174H527.121V238.826Z" fill="white"/>
<path opacity="0.36" d="M532.963 238.826H528.612V243.174H532.963V238.826Z" fill="white"/>
<path opacity="0.14" d="M538.804 238.826H534.454V243.174H538.804V238.826Z" fill="white"/>
<path opacity="0.5" d="M544.522 238.826H540.172V243.174H544.522V238.826Z" fill="white"/>
<path opacity="0.98" d="M550.363 238.826H546.013V243.174H550.363V238.826Z" fill="white"/>
<path opacity="0.59" d="M556.205 238.826H551.855V243.174H556.205V238.826Z" fill="white"/>
<path opacity="0.07" d="M498.161 244.54H493.811V248.888H498.161V244.54Z" fill="white"/>
<path opacity="0.1" d="M503.878 244.54H499.528V248.888H503.878V244.54Z" fill="white"/>
<path opacity="0.88" d="M509.72 244.54H505.37V248.888H509.72V244.54Z" fill="white"/>
<path opacity="0.68" d="M515.562 244.54H511.212V248.888H515.562V244.54Z" fill="white"/>
<path opacity="0.81" d="M521.404 244.54H517.053V248.888H521.404V244.54Z" fill="white"/>
<path opacity="0.62" d="M527.121 244.54H522.771V248.888H527.121V244.54Z" fill="white"/>
<path opacity="0.97" d="M532.963 244.54H528.612V248.888H532.963V244.54Z" fill="white"/>
<path opacity="0.81" d="M538.804 244.54H534.454V248.888H538.804V244.54Z" fill="white"/>
<path opacity="0.79" d="M544.522 244.54H540.172V248.888H544.522V244.54Z" fill="white"/>
<path opacity="0.03" d="M550.363 244.54H546.013V248.888H550.363V244.54Z" fill="white"/>
<path opacity="0.95" d="M556.205 244.54H551.855V248.888H556.205V244.54Z" fill="white"/>
<path opacity="0.62" d="M498.161 250.254H493.811V254.602H498.161V250.254Z" fill="white"/>
<path opacity="0.22" d="M503.878 250.254H499.528V254.602H503.878V250.254Z" fill="white"/>
<path opacity="0.42" d="M509.72 250.254H505.37V254.602H509.72V250.254Z" fill="white"/>
<path opacity="0.56" d="M515.562 250.254H511.212V254.602H515.562V250.254Z" fill="white"/>
<path opacity="0.03" d="M521.404 250.254H517.053V254.602H521.404V250.254Z" fill="white"/>
<path opacity="0.64" d="M527.121 250.254H522.771V254.602H527.121V250.254Z" fill="white"/>
<path opacity="0.82" d="M532.963 250.254H528.612V254.602H532.963V250.254Z" fill="white"/>
<path opacity="0.52" d="M538.804 250.254H534.454V254.602H538.804V250.254Z" fill="white"/>
<path opacity="0.46" d="M544.522 250.254H540.172V254.602H544.522V250.254Z" fill="white"/>
<path opacity="0.27" d="M550.363 250.254H546.013V254.602H550.363V250.254Z" fill="white"/>
<path opacity="0.46" d="M556.205 250.254H551.855V254.602H556.205V250.254Z" fill="white"/>
<path opacity="0.66" d="M498.161 256.093H493.811V260.441H498.161V256.093Z" fill="white"/>
<path opacity="0.7" d="M503.878 256.093H499.528V260.441H503.878V256.093Z" fill="white"/>
<path opacity="0.94" d="M509.72 256.093H505.37V260.441H509.72V256.093Z" fill="white"/>
<path opacity="0.5" d="M515.562 256.093H511.212V260.441H515.562V256.093Z" fill="white"/>
<path opacity="0.12" d="M521.404 256.093H517.053V260.441H521.404V256.093Z" fill="white"/>
<path opacity="0.36" d="M527.121 256.093H522.771V260.441H527.121V256.093Z" fill="white"/>
<path opacity="0.51" d="M532.963 256.093H528.612V260.441H532.963V256.093Z" fill="white"/>
<path opacity="0.37" d="M538.804 256.093H534.454V260.441H538.804V256.093Z" fill="white"/>
<path opacity="0.66" d="M544.522 256.093H540.172V260.441H544.522V256.093Z" fill="white"/>
<path opacity="0.42" d="M550.363 256.093H546.013V260.441H550.363V256.093Z" fill="white"/>
<path opacity="0.5" d="M556.205 256.093H551.855V260.441H556.205V256.093Z" fill="white"/>
<path opacity="0.52" d="M498.161 261.807H493.811V266.155H498.161V261.807Z" fill="white"/>
<path opacity="0.61" d="M503.878 261.807H499.528V266.155H503.878V261.807Z" fill="white"/>
<path opacity="0.84" d="M509.72 261.807H505.37V266.155H509.72V261.807Z" fill="white"/>
<path opacity="0.89" d="M515.562 261.807H511.212V266.155H515.562V261.807Z" fill="white"/>
<path opacity="0.33" d="M521.404 261.807H517.053V266.155H521.404V261.807Z" fill="white"/>
<path opacity="0.25" d="M527.121 261.807H522.771V266.155H527.121V261.807Z" fill="white"/>
<path opacity="0.95" d="M532.963 261.807H528.612V266.155H532.963V261.807Z" fill="white"/>
<path opacity="0.09" d="M538.804 261.807H534.454V266.155H538.804V261.807Z" fill="white"/>
<path opacity="0.44" d="M544.522 261.807H540.172V266.155H544.522V261.807Z" fill="white"/>
<path opacity="0.51" d="M550.363 261.807H546.013V266.155H550.363V261.807Z" fill="white"/>
<path opacity="0.97" d="M556.205 261.807H551.855V266.155H556.205V261.807Z" fill="white"/>
<path opacity="0.26" d="M498.161 267.521H493.811V271.869H498.161V267.521Z" fill="white"/>
<path opacity="0.92" d="M503.878 267.521H499.528V271.869H503.878V267.521Z" fill="white"/>
<path opacity="0.33" d="M509.72 267.521H505.37V271.869H509.72V267.521Z" fill="white"/>
<path opacity="0.23" d="M515.562 267.521H511.212V271.869H515.562V267.521Z" fill="white"/>
<path opacity="0.42" d="M521.404 267.521H517.053V271.869H521.404V267.521Z" fill="white"/>
<path opacity="0.57" d="M527.121 267.521H522.771V271.869H527.121V267.521Z" fill="white"/>
<path opacity="0.73" d="M532.963 267.521H528.612V271.869H532.963V267.521Z" fill="white"/>
<path opacity="0.87" d="M538.804 267.521H534.454V271.869H538.804V267.521Z" fill="white"/>
<path opacity="0.22" d="M544.522 267.521H540.172V271.869H544.522V267.521Z" fill="white"/>
<path opacity="0.89" d="M550.363 267.521H546.013V271.869H550.363V267.521Z" fill="white"/>
<path opacity="0.73" d="M556.205 267.521H551.855V271.869H556.205V267.521Z" fill="white"/>
<path opacity="0.35" d="M498.161 273.236H493.811V277.583H498.161V273.236Z" fill="white"/>
<path opacity="0.81" d="M503.878 273.236H499.528V277.583H503.878V273.236Z" fill="white"/>
<path opacity="0.56" d="M509.72 273.236H505.37V277.583H509.72V273.236Z" fill="white"/>
<path opacity="0.81" d="M515.562 273.236H511.212V277.583H515.562V273.236Z" fill="white"/>
<path opacity="0.87" d="M521.404 273.236H517.053V277.583H521.404V273.236Z" fill="white"/>
<path opacity="0.39" d="M527.121 273.236H522.771V277.583H527.121V273.236Z" fill="white"/>
<path opacity="0.31" d="M532.963 273.236H528.612V277.583H532.963V273.236Z" fill="white"/>
<path opacity="0.98" d="M538.804 273.236H534.454V277.583H538.804V273.236Z" fill="white"/>
<path opacity="0.17" d="M544.522 273.236H540.172V277.583H544.522V273.236Z" fill="white"/>
<path opacity="0.06" d="M550.363 273.236H546.013V277.583H550.363V273.236Z" fill="white"/>
<path opacity="0.57" d="M556.205 273.236H551.855V277.583H556.205V273.236Z" fill="white"/>
<path opacity="0.67" d="M498.161 278.95H493.811V283.298H498.161V278.95Z" fill="white"/>
<path opacity="0.83" d="M503.878 278.95H499.528V283.298H503.878V278.95Z" fill="white"/>
<path opacity="0.99" d="M509.72 278.95H505.37V283.298H509.72V278.95Z" fill="white"/>
<path opacity="0.62" d="M515.562 278.95H511.212V283.298H515.562V278.95Z" fill="white"/>
<path opacity="0.87" d="M521.404 278.95H517.053V283.298H521.404V278.95Z" fill="white"/>
<path opacity="0.14" d="M527.121 278.95H522.771V283.298H527.121V278.95Z" fill="white"/>
<path opacity="0.12" d="M532.963 278.95H528.612V283.298H532.963V278.95Z" fill="white"/>
<path opacity="0.11" d="M538.804 278.95H534.454V283.298H538.804V278.95Z" fill="white"/>
<path opacity="0.39" d="M544.522 278.95H540.172V283.298H544.522V278.95Z" fill="white"/>
<path opacity="0.58" d="M550.363 278.95H546.013V283.298H550.363V278.95Z" fill="white"/>
<path opacity="0.54" d="M556.205 278.95H551.855V283.298H556.205V278.95Z" fill="white"/>
<path opacity="0.99" d="M498.161 284.664H493.811V289.012H498.161V284.664Z" fill="white"/>
<path opacity="0.28" d="M503.878 284.664H499.528V289.012H503.878V284.664Z" fill="white"/>
<path opacity="0.78" d="M509.72 284.664H505.37V289.012H509.72V284.664Z" fill="white"/>
<path opacity="0.65" d="M515.562 284.664H511.212V289.012H515.562V284.664Z" fill="white"/>
<path opacity="0.32" d="M521.404 284.664H517.053V289.012H521.404V284.664Z" fill="white"/>
<path opacity="0.55" d="M527.121 284.664H522.771V289.012H527.121V284.664Z" fill="white"/>
<path opacity="0.4" d="M532.963 284.664H528.612V289.012H532.963V284.664Z" fill="white"/>
<path opacity="0.22" d="M538.804 284.664H534.454V289.012H538.804V284.664Z" fill="white"/>
<path opacity="0.87" d="M544.522 284.664H540.172V289.012H544.522V284.664Z" fill="white"/>
<path opacity="0.02" d="M550.363 284.664H546.013V289.012H550.363V284.664Z" fill="white"/>
<path opacity="0.39" d="M556.205 284.664H551.855V289.012H556.205V284.664Z" fill="white"/>
<path opacity="0.89" d="M498.161 290.378H493.811V294.726H498.161V290.378Z" fill="white"/>
<path opacity="0.97" d="M503.878 290.378H499.528V294.726H503.878V290.378Z" fill="white"/>
<path opacity="0.79" d="M509.72 290.378H505.37V294.726H509.72V290.378Z" fill="white"/>
<path opacity="0.41" d="M515.562 290.378H511.212V294.726H515.562V290.378Z" fill="white"/>
<path opacity="0.13" d="M521.404 290.378H517.053V294.726H521.404V290.378Z" fill="white"/>
<path opacity="0.9" d="M527.121 290.378H522.771V294.726H527.121V290.378Z" fill="white"/>
<path opacity="0.98" d="M532.963 290.378H528.612V294.726H532.963V290.378Z" fill="white"/>
<path opacity="0.67" d="M538.804 290.378H534.454V294.726H538.804V290.378Z" fill="white"/>
<path opacity="0.65" d="M544.522 290.378H540.172V294.726H544.522V290.378Z" fill="white"/>
<path opacity="0.89" d="M550.363 290.378H546.013V294.726H550.363V290.378Z" fill="white"/>
<path opacity="0.98" d="M556.205 290.378H551.855V294.726H556.205V290.378Z" fill="white"/>
<path opacity="0.29" d="M498.161 296.093H493.811V300.44H498.161V296.093Z" fill="white"/>
<path opacity="0.74" d="M503.878 296.093H499.528V300.44H503.878V296.093Z" fill="white"/>
<path opacity="0.64" d="M509.72 296.093H505.37V300.44H509.72V296.093Z" fill="white"/>
<path opacity="0.65" d="M515.562 296.093H511.212V300.44H515.562V296.093Z" fill="white"/>
<path opacity="0.07" d="M521.404 296.093H517.053V300.44H521.404V296.093Z" fill="white"/>
<path opacity="0.16" d="M527.121 296.093H522.771V300.44H527.121V296.093Z" fill="white"/>
<path opacity="0.84" d="M532.963 296.093H528.612V300.44H532.963V296.093Z" fill="white"/>
<path opacity="0.88" d="M538.804 296.093H534.454V300.44H538.804V296.093Z" fill="white"/>
<path opacity="0.57" d="M544.522 296.093H540.172V300.44H544.522V296.093Z" fill="white"/>
<path opacity="0.31" d="M550.363 296.093H546.013V300.44H550.363V296.093Z" fill="white"/>
<path opacity="0.03" d="M556.205 296.093H551.855V300.44H556.205V296.093Z" fill="white"/>
<path opacity="0.3" d="M498.161 301.807H493.811V306.154H498.161V301.807Z" fill="white"/>
<path opacity="0.59" d="M503.878 301.807H499.528V306.154H503.878V301.807Z" fill="white"/>
<path opacity="0.93" d="M509.72 301.807H505.37V306.154H509.72V301.807Z" fill="white"/>
<path opacity="0.06" d="M515.562 301.807H511.212V306.154H515.562V301.807Z" fill="white"/>
<path opacity="0.74" d="M521.404 301.807H517.053V306.154H521.404V301.807Z" fill="white"/>
<path opacity="0.22" d="M527.121 301.807H522.771V306.154H527.121V301.807Z" fill="white"/>
<path opacity="0.51" d="M532.963 301.807H528.612V306.154H532.963V301.807Z" fill="white"/>
<path opacity="0.7" d="M538.804 301.807H534.454V306.154H538.804V301.807Z" fill="white"/>
<path opacity="0.47" d="M544.522 301.807H540.172V306.154H544.522V301.807Z" fill="white"/>
<path opacity="0.08" d="M550.363 301.807H546.013V306.154H550.363V301.807Z" fill="white"/>
<path opacity="0.93" d="M556.205 301.807H551.855V306.154H556.205V301.807Z" fill="white"/>
<path opacity="0.81" d="M498.161 307.521H493.811V311.869H498.161V307.521Z" fill="white"/>
<path opacity="0.9" d="M503.878 307.521H499.528V311.869H503.878V307.521Z" fill="white"/>
<path opacity="0.55" d="M509.72 307.521H505.37V311.869H509.72V307.521Z" fill="white"/>
<path opacity="0.14" d="M515.562 307.521H511.212V311.869H515.562V307.521Z" fill="white"/>
<path opacity="0.66" d="M521.404 307.521H517.053V311.869H521.404V307.521Z" fill="white"/>
<path opacity="0.92" d="M527.121 307.521H522.771V311.869H527.121V307.521Z" fill="white"/>
<path opacity="0.4" d="M532.963 307.521H528.612V311.869H532.963V307.521Z" fill="white"/>
<path opacity="0.6" d="M538.804 307.521H534.454V311.869H538.804V307.521Z" fill="white"/>
<path opacity="0.99" d="M544.522 307.521H540.172V311.869H544.522V307.521Z" fill="white"/>
<path opacity="0.68" d="M550.363 307.521H546.013V311.869H550.363V307.521Z" fill="white"/>
<path opacity="0.01" d="M556.205 307.521H551.855V311.869H556.205V307.521Z" fill="white"/>
<path d="M424.705 193.733H383.689V322.179H424.705V193.733Z" fill="#333333"/>
<path d="M402.333 187.273H383.689V194.478H402.333V187.273Z" fill="#333333"/>
<path d="M394.502 183.05H383.689V187.274H394.502V183.05Z" fill="#333333"/>
<path opacity="0.25" d="M407.429 202.801H400.717V209.509H407.429V202.801Z" fill="white"/>
<path opacity="0.15" d="M407.429 219.323H400.717V226.031H407.429V219.323Z" fill="white"/>
<path opacity="0.19" d="M407.429 252.242H400.717V258.95H407.429V252.242Z" fill="white"/>
<path opacity="0.17" d="M407.429 268.639H400.717V275.347H407.429V268.639Z" fill="white"/>
<path opacity="0.22" d="M407.429 285.036H400.717V291.744H407.429V285.036Z" fill="white"/>
<path d="M407.429 301.558H400.717V308.266H407.429V301.558Z" fill="white"/>
<path d="M394.254 265.285H355.848V276.59H394.254V265.285Z" fill="#333333"/>
<path d="M413.394 265.285H394.254V276.59H413.394V265.285Z" fill="#4D4D4D"/>
<path d="M355.848 265.285L367.78 259.571L394.254 265.285H355.848Z" fill="#333333"/>
<path d="M367.78 259.571L394.254 265.285H413.394L367.78 259.571Z" fill="#4D4D4D"/>
<path d="M403.203 273.235H347.023V324.663H403.203V273.235Z" fill="#333333"/>
<path d="M421.846 273.235H403.203V324.663H421.846V273.235Z" fill="#4D4D4D"/>
<path opacity="0.81" d="M417.496 276.838H407.429V280.565H417.496V276.838Z" fill="white"/>
<path opacity="0.76" d="M417.496 283.67H407.429V287.397H417.496V283.67Z" fill="white"/>
<path opacity="0.32" d="M417.496 290.502H407.429V294.229H417.496V290.502Z" fill="white"/>
<path opacity="0.49" d="M417.496 297.459H407.429V301.185H417.496V297.459Z" fill="white"/>
<path opacity="0.1" d="M366.04 276.838H355.972V280.565H366.04V276.838Z" fill="white"/>
<path opacity="0.04" d="M380.084 276.838H370.017V280.565H380.084V276.838Z" fill="white"/>
<path opacity="0.07" d="M394.254 276.838H384.186V280.565H394.254V276.838Z" fill="white"/>
<path opacity="0.06" d="M366.04 283.67H355.972V287.397H366.04V283.67Z" fill="white"/>
<path opacity="0.44" d="M380.084 283.67H370.017V287.397H380.084V283.67Z" fill="white"/>
<path opacity="0.24" d="M394.254 283.67H384.186V287.397H394.254V283.67Z" fill="white"/>
<path opacity="0.55" d="M366.04 290.502H355.972V294.229H366.04V290.502Z" fill="white"/>
<path opacity="0.02" d="M380.084 290.502H370.017V294.229H380.084V290.502Z" fill="white"/>
<path opacity="0.14" d="M394.254 290.502H384.186V294.229H394.254V290.502Z" fill="white"/>
<path opacity="0.43" d="M366.04 297.459H355.972V301.185H366.04V297.459Z" fill="white"/>
<path opacity="0.41" d="M380.084 297.459H370.017V301.185H380.084V297.459Z" fill="white"/>
<path opacity="0.46" d="M394.254 297.459H384.186V301.185H394.254V297.459Z" fill="white"/>
<path opacity="0.45" d="M366.04 304.291H355.972V308.018H366.04V304.291Z" fill="white"/>
<path opacity="0.33" d="M380.084 304.291H370.017V308.018H380.084V304.291Z" fill="white"/>
<path opacity="0.05" d="M394.254 304.291H384.186V308.018H394.254V304.291Z" fill="white"/>
<path d="M129.886 221.807H95.0847V329.011H129.886V221.807Z" fill="#333333"/>
<path d="M169.535 221.807H130.011V329.011H169.535V221.807Z" fill="#4D4D4D"/>
<path d="M129.886 230.876H95.0847V232.739H129.886V230.876Z" fill="#4D4D4D"/>
<path d="M169.535 230.876H130.011V232.739H169.535V230.876Z" fill="#333333"/>
<path opacity="0.47" d="M101.672 234.851H97.9435V238.577H101.672V234.851Z" fill="white"/>
<path opacity="0.26" d="M106.768 234.851H103.039V238.577H106.768V234.851Z" fill="white"/>
<path opacity="0.32" d="M111.864 234.851H108.135V238.577H111.864V234.851Z" fill="white"/>
<path opacity="0.25" d="M116.96 234.851H113.231V238.577H116.96V234.851Z" fill="white"/>
<path opacity="0.12" d="M127.152 234.851H123.423V238.577H127.152V234.851Z" fill="white"/>
<path opacity="0.32" d="M101.672 239.944H97.9435V243.671H101.672V239.944Z" fill="white"/>
<path opacity="0.22" d="M111.864 239.944H108.135V243.671H111.864V239.944Z" fill="white"/>
<path opacity="0.47" d="M116.96 239.944H113.231V243.671H116.96V239.944Z" fill="white"/>
<path opacity="0.22" d="M122.056 239.944H118.327V243.671H122.056V239.944Z" fill="white"/>
<path opacity="0.32" d="M127.152 239.944H123.423V243.671H127.152V239.944Z" fill="white"/>
<path opacity="0.37" d="M101.672 245.037H97.9435V248.764H101.672V245.037Z" fill="white"/>
<path opacity="0.34" d="M106.768 245.037H103.039V248.764H106.768V245.037Z" fill="white"/>
<path opacity="0.18" d="M111.864 245.037H108.135V248.764H111.864V245.037Z" fill="white"/>
<path opacity="0.28" d="M116.96 245.037H113.231V248.764H116.96V245.037Z" fill="white"/>
<path opacity="0.2" d="M127.152 245.037H123.423V248.764H127.152V245.037Z" fill="white"/>
<path opacity="0.18" d="M101.672 250.13H97.9435V253.857H101.672V250.13Z" fill="white"/>
<path opacity="0.33" d="M111.864 250.13H108.135V253.857H111.864V250.13Z" fill="white"/>
<path opacity="0.05" d="M116.96 250.13H113.231V253.857H116.96V250.13Z" fill="white"/>
<path opacity="0.08" d="M122.056 250.13H118.327V253.857H122.056V250.13Z" fill="white"/>
<path opacity="0.08" d="M116.96 255.223H113.231V258.95H116.96V255.223Z" fill="white"/>
<path opacity="0.02" d="M122.056 255.223H118.327V258.95H122.056V255.223Z" fill="white"/>
<path opacity="0.03" d="M101.672 260.316H97.9435V264.043H101.672V260.316Z" fill="white"/>
<path opacity="0.46" d="M106.768 260.316H103.039V264.043H106.768V260.316Z" fill="white"/>
<path opacity="0.05" d="M111.864 260.316H108.135V264.043H111.864V260.316Z" fill="white"/>
<path opacity="0.2" d="M116.96 260.316H113.231V264.043H116.96V260.316Z" fill="white"/>
<path opacity="0.23" d="M122.056 260.316H118.327V264.043H122.056V260.316Z" fill="white"/>
<path opacity="0.17" d="M101.672 265.409H97.9435V269.136H101.672V265.409Z" fill="white"/>
<path opacity="0.08" d="M106.768 265.409H103.039V269.136H106.768V265.409Z" fill="white"/>
<path opacity="0.14" d="M111.864 265.409H108.135V269.136H111.864V265.409Z" fill="white"/>
<path opacity="0.24" d="M122.056 265.409H118.327V269.136H122.056V265.409Z" fill="white"/>
<path opacity="0.28" d="M101.672 270.502H97.9435V274.229H101.672V270.502Z" fill="white"/>
<path opacity="0.3" d="M106.768 270.502H103.039V274.229H106.768V270.502Z" fill="white"/>
<path opacity="0.23" d="M111.864 270.502H108.135V274.229H111.864V270.502Z" fill="white"/>
<path opacity="0.02" d="M116.96 270.502H113.231V274.229H116.96V270.502Z" fill="white"/>
<path opacity="0.04" d="M122.056 270.502H118.327V274.229H122.056V270.502Z" fill="white"/>
<path opacity="0.3" d="M127.152 270.502H123.423V274.229H127.152V270.502Z" fill="white"/>
<path opacity="0.08" d="M106.768 275.471H103.039V279.198H106.768V275.471Z" fill="white"/>
<path opacity="0.4" d="M127.152 275.471H123.423V279.198H127.152V275.471Z" fill="white"/>
<path opacity="0.31" d="M101.672 280.564H97.9435V284.291H101.672V280.564Z" fill="white"/>
<path opacity="0.31" d="M106.768 280.564H103.039V284.291H106.768V280.564Z" fill="white"/>
<path opacity="0.12" d="M111.864 280.564H108.135V284.291H111.864V280.564Z" fill="white"/>
<path opacity="0.19" d="M122.056 280.564H118.327V284.291H122.056V280.564Z" fill="white"/>
<path opacity="0.43" d="M127.152 280.564H123.423V284.291H127.152V280.564Z" fill="white"/>
<path opacity="0.12" d="M101.672 285.658H97.9435V289.385H101.672V285.658Z" fill="white"/>
<path opacity="0.42" d="M116.96 285.658H113.231V289.385H116.96V285.658Z" fill="white"/>
<path opacity="0.31" d="M127.152 285.658H123.423V289.385H127.152V285.658Z" fill="white"/>
<path opacity="0.23" d="M101.672 290.751H97.9435V294.477H101.672V290.751Z" fill="white"/>
<path opacity="0.31" d="M116.96 290.751H113.231V294.477H116.96V290.751Z" fill="white"/>
<path opacity="0.33" d="M127.152 290.751H123.423V294.477H127.152V290.751Z" fill="white"/>
<path opacity="0.49" d="M101.672 295.844H97.9435V299.571H101.672V295.844Z" fill="white"/>
<path opacity="0.06" d="M106.768 295.844H103.039V299.571H106.768V295.844Z" fill="white"/>
<path opacity="0.17" d="M116.96 295.844H113.231V299.571H116.96V295.844Z" fill="white"/>
<path opacity="0.01" d="M122.056 295.844H118.327V299.571H122.056V295.844Z" fill="white"/>
<path opacity="0.48" d="M127.152 295.844H123.423V299.571H127.152V295.844Z" fill="white"/>
<path opacity="0.05" d="M101.672 300.937H97.9435V304.664H101.672V300.937Z" fill="white"/>
<path opacity="0.23" d="M106.768 300.937H103.039V304.664H106.768V300.937Z" fill="white"/>
<path opacity="0.28" d="M111.864 300.937H108.135V304.664H111.864V300.937Z" fill="white"/>
<path opacity="0.02" d="M116.96 300.937H113.231V304.664H116.96V300.937Z" fill="white"/>
<path opacity="0.17" d="M122.056 300.937H118.327V304.664H122.056V300.937Z" fill="white"/>
<path opacity="0.42" d="M127.152 300.937H123.423V304.664H127.152V300.937Z" fill="white"/>
<path opacity="0.13" d="M101.672 306.03H97.9435V309.757H101.672V306.03Z" fill="white"/>
<path opacity="0.11" d="M111.864 306.03H108.135V309.757H111.864V306.03Z" fill="white"/>
<path opacity="0.02" d="M116.96 306.03H113.231V309.757H116.96V306.03Z" fill="white"/>
<path opacity="0.3" d="M127.152 306.03H123.423V309.757H127.152V306.03Z" fill="white"/>
<path opacity="0.08" d="M122.056 234.851H118.327V238.577H122.056V234.851Z" fill="white"/>
<path opacity="0.1" d="M106.768 239.944H103.039V243.671H106.768V239.944Z" fill="white"/>
<path opacity="0.08" d="M122.056 245.037H118.327V248.764H122.056V245.037Z" fill="white"/>
<path opacity="0.1" d="M106.768 250.13H103.039V253.857H106.768V250.13Z" fill="white"/>
<path opacity="0.01" d="M127.152 250.13H123.423V253.857H127.152V250.13Z" fill="white"/>
<path opacity="0.17" d="M101.672 255.223H97.9435V258.95H101.672V255.223Z" fill="white"/>
<path opacity="0.01" d="M106.768 255.223H103.039V258.95H106.768V255.223Z" fill="white"/>
<path opacity="0.15" d="M111.864 255.223H108.135V258.95H111.864V255.223Z" fill="white"/>
<path opacity="0.12" d="M127.152 255.223H123.423V258.95H127.152V255.223Z" fill="white"/>
<path opacity="0.13" d="M116.96 265.409H113.231V269.136H116.96V265.409Z" fill="white"/>
<path opacity="0.07" d="M127.152 265.409H123.423V269.136H127.152V265.409Z" fill="white"/>
<path opacity="0.13" d="M101.672 275.471H97.9435V279.198H101.672V275.471Z" fill="white"/>
<path opacity="0.02" d="M111.864 275.471H108.135V279.198H111.864V275.471Z" fill="white"/>
<path opacity="0.02" d="M116.96 275.471H113.231V279.198H116.96V275.471Z" fill="white"/>
<path opacity="0.14" d="M122.056 275.471H118.327V279.198H122.056V275.471Z" fill="white"/>
<path opacity="0.09" d="M111.864 285.658H108.135V289.385H111.864V285.658Z" fill="white"/>
<path opacity="0.02" d="M122.056 285.658H118.327V289.385H122.056V285.658Z" fill="white"/>
<path opacity="0.19" d="M111.864 290.751H108.135V294.477H111.864V290.751Z" fill="white"/>
<path opacity="0.06" d="M122.056 290.751H118.327V294.477H122.056V290.751Z" fill="white"/>
<path opacity="0.16" d="M111.864 295.844H108.135V299.571H111.864V295.844Z" fill="white"/>
<path opacity="0.19" d="M106.768 306.03H103.039V309.757H106.768V306.03Z" fill="white"/>
<path opacity="0.04" d="M122.056 306.03H118.327V309.757H122.056V306.03Z" fill="white"/>
<g opacity="0.7">
<path opacity="0.7" d="M137.468 232.739H133.615V324.291H137.468V232.739Z" fill="#E6E6E6"/>
<path opacity="0.7" d="M144.055 232.739H140.202V324.291H144.055V232.739Z" fill="#E6E6E6"/>
<path opacity="0.7" d="M150.767 232.739H146.914V324.291H150.767V232.739Z" fill="#E6E6E6"/>
<path opacity="0.7" d="M157.479 232.739H153.626V324.291H157.479V232.739Z" fill="#E6E6E6"/>
<path opacity="0.7" d="M164.191 232.739H160.338V324.291H164.191V232.739Z" fill="#E6E6E6"/>
</g>
<path d="M52.3286 169.261L44.6225 148.889L65.2549 169.261H52.3286Z" fill="#4D4D4D"/>
<path d="M34.3063 169.261L44.6225 148.889L52.3286 169.261H34.3063Z" fill="#333333"/>
<path d="M52.3286 169.261H34.3063V191H52.3286V169.261Z" fill="#333333"/>
<path d="M65.2548 169.261H52.3286V191H65.2548V169.261Z" fill="#4D4D4D"/>
<path d="M70.5994 267.024H16.0355V329.508H70.5994V267.024Z" fill="#333333"/>
<path d="M63.1419 222.304H23.6173V267.024H63.1419V222.304Z" fill="#333333"/>
<path d="M57.4245 177.584H29.3347V222.304H57.4245V177.584Z" fill="#333333"/>
<path d="M76.6896 177.584H57.3002V222.304H76.6896V177.584Z" fill="#4D4D4D"/>
<path d="M104.158 267.024H70.5994V329.508H104.158V267.024Z" fill="#4D4D4D"/>
<path d="M88.6216 222.304H63.1419V267.024H88.6216V222.304Z" fill="#4D4D4D"/>
<path opacity="0.53" d="M69.9779 180.814H64.1362V186.652H69.9779V180.814Z" fill="white"/>
<path opacity="0.34" d="M69.9779 188.143H64.1362V193.981H69.9779V188.143Z" fill="white"/>
<path opacity="0.9" d="M69.9779 195.348H64.1362V201.186H69.9779V195.348Z" fill="white"/>
<path opacity="0.14" d="M69.9779 202.553H64.1362V208.391H69.9779V202.553Z" fill="white"/>
<path d="M69.9779 209.882H64.1362V215.72H69.9779V209.882Z" fill="white"/>
<path opacity="0.29" d="M74.3282 226.155H68.4865V231.993H74.3282V226.155Z" fill="white"/>
<path opacity="0.81" d="M83.2771 226.155H77.4354V231.993H83.2771V226.155Z" fill="white"/>
<path opacity="0.18" d="M74.3282 233.484H68.4865V239.323H74.3282V233.484Z" fill="white"/>
<path opacity="0.41" d="M83.2771 233.484H77.4354V239.323H83.2771V233.484Z" fill="white"/>
<path opacity="0.03" d="M83.2771 240.938H77.4354V246.776H83.2771V240.938Z" fill="white"/>
<path opacity="0.85" d="M74.3282 248.391H68.4865V254.229H74.3282V248.391Z" fill="white"/>
<path opacity="0.06" d="M83.2771 248.391H77.4354V254.229H83.2771V248.391Z" fill="white"/>
<path opacity="0.94" d="M74.3282 255.72H68.4865V261.558H74.3282V255.72Z" fill="white"/>
<path opacity="0.25" d="M83.2771 255.72H77.4354V261.558H83.2771V255.72Z" fill="white"/>
<path opacity="0.6" d="M82.5313 270.875H76.6896V276.713H82.5313V270.875Z" fill="white"/>
<path opacity="0.83" d="M90.3617 270.875H84.52V276.713H90.3617V270.875Z" fill="white"/>
<path opacity="0.74" d="M98.192 270.875H92.3503V276.713H98.192V270.875Z" fill="white"/>
<path opacity="0.35" d="M90.3617 277.956H84.52V283.794H90.3617V277.956Z" fill="white"/>
<path opacity="0.54" d="M98.192 277.956H92.3503V283.794H98.192V277.956Z" fill="white"/>
<path opacity="0.2" d="M82.5313 285.036H76.6896V290.875H82.5313V285.036Z" fill="white"/>
<path opacity="0.04" d="M90.3617 285.036H84.52V290.875H90.3617V285.036Z" fill="white"/>
<path opacity="0.86" d="M98.192 285.036H92.3503V290.875H98.192V285.036Z" fill="white"/>
<path opacity="0.06" d="M82.5313 292.117H76.6896V297.956H82.5313V292.117Z" fill="white"/>
<path opacity="0.01" d="M90.3617 292.117H84.52V297.956H90.3617V292.117Z" fill="white"/>
<path opacity="0.39" d="M98.192 292.117H92.3503V297.956H98.192V292.117Z" fill="white"/>
<path opacity="0.1" d="M82.5313 299.322H76.6896V305.16H82.5313V299.322Z" fill="white"/>
<path d="M90.3617 299.322H84.52V305.16H90.3617V299.322Z" fill="white"/>
<path opacity="0.62" d="M98.192 299.322H92.3503V305.16H98.192V299.322Z" fill="white"/>
<path opacity="0.48" d="M82.5313 306.651H76.6896V312.49H82.5313V306.651Z" fill="white"/>
<path opacity="0.27" d="M90.3617 306.651H84.52V312.49H90.3617V306.651Z" fill="white"/>
<path opacity="0.42" d="M98.192 306.651H92.3503V312.49H98.192V306.651Z" fill="white"/>
<path opacity="0.27" d="M27.7189 270.875H21.8772V276.713H27.7189V270.875Z" fill="white"/>
<path opacity="0.11" d="M34.3063 226.155H28.4646V231.993H34.3063V226.155Z" fill="white"/>
<path opacity="0.41" d="M38.9051 180.814H33.0634V186.652H38.9051V180.814Z" fill="white"/>
<path opacity="0.38" d="M46.2383 180.814H40.3966V186.652H46.2383V180.814Z" fill="white"/>
<path opacity="0.02" d="M53.6957 180.814H47.8541V186.652H53.6957V180.814Z" fill="white"/>
<path opacity="0.46" d="M38.9051 188.143H33.0634V193.981H38.9051V188.143Z" fill="white"/>
<path opacity="0.31" d="M46.2383 188.143H40.3966V193.981H46.2383V188.143Z" fill="white"/>
<path opacity="0.61" d="M53.6957 188.143H47.8541V193.981H53.6957V188.143Z" fill="white"/>
<path opacity="0.03" d="M38.9051 195.348H33.0634V201.186H38.9051V195.348Z" fill="white"/>
<path opacity="0.03" d="M46.2383 195.348H40.3966V201.186H46.2383V195.348Z" fill="white"/>
<path opacity="0.46" d="M53.6957 195.348H47.8541V201.186H53.6957V195.348Z" fill="white"/>
<path opacity="0.32" d="M38.9051 202.553H33.0634V208.391H38.9051V202.553Z" fill="white"/>
<path opacity="0.14" d="M46.2383 202.553H40.3966V208.391H46.2383V202.553Z" fill="white"/>
<path opacity="0.3" d="M53.6957 202.553H47.8541V208.391H53.6957V202.553Z" fill="white"/>
<path opacity="0.04" d="M38.9051 209.882H33.0634V215.72H38.9051V209.882Z" fill="white"/>
<path opacity="0.64" d="M46.2383 209.882H40.3966V215.72H46.2383V209.882Z" fill="white"/>
<path opacity="0.05" d="M53.6957 209.882H47.8541V215.72H53.6957V209.882Z" fill="white"/>
<path opacity="0.15" d="M41.7638 226.155H35.9221V231.993H41.7638V226.155Z" fill="white"/>
<path opacity="0.15" d="M49.2213 226.155H43.3796V231.993H49.2213V226.155Z" fill="white"/>
<path opacity="0.52" d="M56.5544 226.155H50.7128V231.993H56.5544V226.155Z" fill="white"/>
<path opacity="0.58" d="M34.3063 233.484H28.4646V239.323H34.3063V233.484Z" fill="white"/>
<path opacity="0.62" d="M41.7638 233.484H35.9221V239.323H41.7638V233.484Z" fill="white"/>
<path opacity="0.04" d="M49.2213 233.484H43.3796V239.323H49.2213V233.484Z" fill="white"/>
<path opacity="0.06" d="M56.5544 233.484H50.7128V239.323H56.5544V233.484Z" fill="white"/>
<path opacity="0.3" d="M34.3063 240.938H28.4646V246.776H34.3063V240.938Z" fill="white"/>
<path opacity="0.01" d="M41.7638 240.938H35.9221V246.776H41.7638V240.938Z" fill="white"/>
<path opacity="0.37" d="M49.2213 240.938H43.3796V246.776H49.2213V240.938Z" fill="white"/>
<path opacity="0.62" d="M56.5544 240.938H50.7128V246.776H56.5544V240.938Z" fill="white"/>
<path opacity="0.54" d="M34.3063 248.391H28.4646V254.229H34.3063V248.391Z" fill="white"/>
<path opacity="0.21" d="M41.7638 248.391H35.9221V254.229H41.7638V248.391Z" fill="white"/>
<path opacity="0.41" d="M49.2213 248.391H43.3796V254.229H49.2213V248.391Z" fill="white"/>
<path opacity="0.1" d="M56.5544 248.391H50.7128V254.229H56.5544V248.391Z" fill="white"/>
<path opacity="0.17" d="M34.3063 255.72H28.4646V261.558H34.3063V255.72Z" fill="white"/>
<path opacity="0.17" d="M41.7638 255.72H35.9221V261.558H41.7638V255.72Z" fill="white"/>
<path opacity="0.13" d="M49.2213 255.72H43.3796V261.558H49.2213V255.72Z" fill="white"/>
<path opacity="0.5" d="M56.5544 255.72H50.7128V261.558H56.5544V255.72Z" fill="white"/>
<path opacity="0.06" d="M35.1764 270.875H29.3347V276.713H35.1764V270.875Z" fill="white"/>
<path opacity="0.27" d="M42.5095 270.875H36.6678V276.713H42.5095V270.875Z" fill="white"/>
<path opacity="0.51" d="M49.9671 270.875H44.1254V276.713H49.9671V270.875Z" fill="white"/>
<path opacity="0.42" d="M57.4245 270.875H51.5828V276.713H57.4245V270.875Z" fill="white"/>
<path opacity="0.64" d="M64.7576 270.875H58.916V276.713H64.7576V270.875Z" fill="white"/>
<path opacity="0.29" d="M27.7189 277.956H21.8772V283.794H27.7189V277.956Z" fill="white"/>
<path opacity="0.6" d="M35.1764 277.956H29.3347V283.794H35.1764V277.956Z" fill="white"/>
<path opacity="0.2" d="M42.5095 277.956H36.6678V283.794H42.5095V277.956Z" fill="white"/>
<path opacity="0.24" d="M49.9671 277.956H44.1254V283.794H49.9671V277.956Z" fill="white"/>
<path opacity="0.62" d="M57.4245 277.956H51.5828V283.794H57.4245V277.956Z" fill="white"/>
<path opacity="0.62" d="M64.7576 277.956H58.916V283.794H64.7576V277.956Z" fill="white"/>
<path opacity="0.25" d="M27.7189 285.036H21.8772V290.875H27.7189V285.036Z" fill="white"/>
<path opacity="0.36" d="M35.1764 285.036H29.3347V290.875H35.1764V285.036Z" fill="white"/>
<path opacity="0.16" d="M42.5095 285.036H36.6678V290.875H42.5095V285.036Z" fill="white"/>
<path opacity="0.1" d="M49.9671 285.036H44.1254V290.875H49.9671V285.036Z" fill="white"/>
<path opacity="0.04" d="M57.4245 285.036H51.5828V290.875H57.4245V285.036Z" fill="white"/>
<path opacity="0.44" d="M64.7576 285.036H58.916V290.875H64.7576V285.036Z" fill="white"/>
<path opacity="0.68" d="M27.7189 292.117H21.8772V297.956H27.7189V292.117Z" fill="white"/>
<path opacity="0.01" d="M35.1764 292.117H29.3347V297.956H35.1764V292.117Z" fill="white"/>
<path opacity="0.29" d="M42.5095 292.117H36.6678V297.956H42.5095V292.117Z" fill="white"/>
<path opacity="0.66" d="M49.9671 292.117H44.1254V297.956H49.9671V292.117Z" fill="white"/>
<path opacity="0.12" d="M57.4245 292.117H51.5828V297.956H57.4245V292.117Z" fill="white"/>
<path opacity="0.34" d="M64.7576 292.117H58.916V297.956H64.7576V292.117Z" fill="white"/>
<path opacity="0.36" d="M27.7189 299.322H21.8772V305.16H27.7189V299.322Z" fill="white"/>
<path opacity="0.5" d="M35.1764 299.322H29.3347V305.16H35.1764V299.322Z" fill="white"/>
<path opacity="0.07" d="M42.5095 299.322H36.6678V305.16H42.5095V299.322Z" fill="white"/>
<path opacity="0.64" d="M49.9671 299.322H44.1254V305.16H49.9671V299.322Z" fill="white"/>
<path opacity="0.4" d="M57.4245 299.322H51.5828V305.16H57.4245V299.322Z" fill="white"/>
<path opacity="0.27" d="M64.7576 299.322H58.916V305.16H64.7576V299.322Z" fill="white"/>
<path opacity="0.09" d="M27.7189 306.651H21.8772V312.49H27.7189V306.651Z" fill="white"/>
<path opacity="0.47" d="M35.1764 306.651H29.3347V312.49H35.1764V306.651Z" fill="white"/>
<path opacity="0.57" d="M42.5095 306.651H36.6678V312.49H42.5095V306.651Z" fill="white"/>
<path opacity="0.12" d="M49.9671 306.651H44.1254V312.49H49.9671V306.651Z" fill="white"/>
<path opacity="0.23" d="M57.4245 306.651H51.5828V312.49H57.4245V306.651Z" fill="white"/>
<path opacity="0.36" d="M64.7576 306.651H58.916V312.49H64.7576V306.651Z" fill="white"/>
<path d="M189.422 324.291H112.113L189.422 256.962V324.291Z" fill="#333333"/>
<path d="M23.6173 325.657H-83.5217L23.6173 232.49V325.657Z" fill="#333333"/>
<path d="M180.846 308.887H158.225V315.844H180.846V308.887Z" fill="#4D4D4D"/>
<path d="M178.236 310.999H160.711L166.801 300.813H172.145L178.236 310.999Z" fill="#4D4D4D"/>
<path d="M84.1472 318.701C84.1472 323.545 80.2941 327.52 75.5711 327.52C70.848 327.52 66.9949 323.545 66.9949 318.701C66.9949 313.856 70.848 309.881 75.5711 309.881C80.2941 309.757 84.1472 313.732 84.1472 318.701Z" fill="#333333"/>
<path d="M314.956 314.85C314.956 318.08 312.346 320.813 309.238 320.813C306.131 320.813 303.521 318.204 303.521 314.85C303.521 311.62 306.131 308.887 309.238 308.887C312.346 308.887 314.956 311.62 314.956 314.85Z" fill="#333333"/>
<path d="M114.723 315.222C114.723 318.576 112.113 321.309 108.757 321.309C105.525 321.309 102.791 318.576 102.791 315.222C102.791 311.868 105.401 309.135 108.757 309.135C112.113 309.135 114.723 311.868 114.723 315.222Z" fill="#333333"/>
</svg>
