<svg width="637" height="311" viewBox="0 0 637 311" fill="none" xmlns="http://www.w3.org/2000/svg">
<path d="M525.683 107.647H566.699V303.67H525.683V107.647Z" fill="#333333"/>
<path d="M536.994 97.7095H555.637V108.765H536.994V97.7095Z" fill="#333333"/>
<path d="M540.847 91.2498H551.66V97.5851H540.847V91.2498Z" fill="#333333"/>
<path d="M546.937 107.274L546.191 0.443359L545.57 107.274H546.937Z" fill="#333333"/>
<path opacity="0.09" d="M544.078 122.43H548.429V126.777H544.078V122.43Z" fill="white"/>
<path opacity="0.33" d="M544.078 136.218H548.429V140.566H544.078V136.218Z" fill="white"/>
<path opacity="0.37" d="M544.078 150.131H548.429V154.479H544.078V150.131Z" fill="white"/>
<path opacity="0.14" d="M544.078 163.92H548.429V168.268H544.078V163.92Z" fill="white"/>
<path opacity="0.3" d="M544.078 177.833H548.429V182.181H544.078V177.833Z" fill="white"/>
<path opacity="0.16" d="M544.078 191.621H548.429V195.969H544.078V191.621Z" fill="white"/>
<path opacity="0.34" d="M544.078 205.534H548.429V209.882H544.078V205.534Z" fill="white"/>
<path opacity="0.29" d="M544.078 219.323H548.429V223.671H544.078V219.323Z" fill="white"/>
<path opacity="0.12" d="M544.078 233.236H548.429V237.584H544.078V233.236Z" fill="white"/>
<path d="M600.631 151.995H729.148V323.049H600.631V151.995Z" fill="#4D4D4D"/>
<path d="M634.314 159.075H641.15V165.907H634.314V159.075Z" fill="white"/>
<path d="M625.241 159.075H632.077V165.907H625.241V159.075Z" fill="white"/>
<path d="M634.314 168.019H641.15V174.852H634.314V168.019Z" fill="white"/>
<path d="M625.241 168.019H632.077V174.852H625.241V168.019Z" fill="white"/>
<path d="M634.314 176.963H641.15V183.796H634.314V176.963Z" fill="white"/>
<path d="M625.241 176.963H632.077V183.796H625.241V176.963Z" fill="white"/>
<path d="M634.314 185.783H641.15V192.615H634.314V185.783Z" fill="white"/>
<path d="M625.241 185.783H632.077V192.615H625.241V185.783Z" fill="white"/>
<path d="M634.314 194.727H641.15V201.559H634.314V194.727Z" fill="white"/>
<path d="M625.241 194.727H632.077V201.559H625.241V194.727Z" fill="white"/>
<path d="M634.314 203.671H641.15V210.503H634.314V203.671Z" fill="white"/>
<path d="M625.241 203.671H632.077V210.503H625.241V203.671Z" fill="white"/>
<path d="M634.314 212.615H641.15V219.447H634.314V212.615Z" fill="white"/>
<path d="M625.241 212.615H632.077V219.447H625.241V212.615Z" fill="white"/>
<path d="M634.314 221.559H641.15V228.391H634.314V221.559Z" fill="white"/>
<path d="M625.241 221.559H632.077V228.391H625.241V221.559Z" fill="white"/>
<path d="M634.314 230.379H641.15V237.211H634.314V230.379Z" fill="white"/>
<path d="M625.241 230.379H632.077V237.211H625.241V230.379Z" fill="white"/>
<path d="M634.314 239.323H641.15V246.155H634.314V239.323Z" fill="white"/>
<path d="M625.241 239.323H632.077V246.155H625.241V239.323Z" fill="white"/>
<path d="M634.314 248.267H641.15V255.099H634.314V248.267Z" fill="white"/>
<path d="M625.241 248.267H632.077V255.099H625.241V248.267Z" fill="white"/>
<path d="M634.314 257.211H641.15V264.043H634.314V257.211Z" fill="white"/>
<path d="M625.241 257.211H632.077V264.043H625.241V257.211Z" fill="white"/>
<path d="M634.314 266.155H641.15V272.987H634.314V266.155Z" fill="white"/>
<path d="M625.241 266.155H632.077V272.987H625.241V266.155Z" fill="white"/>
<path d="M634.314 274.975H641.15V281.807H634.314V274.975Z" fill="white"/>
<path d="M625.241 274.975H632.077V281.807H625.241V274.975Z" fill="white"/>
<path d="M616.167 274.975H623.003V281.807H616.167V274.975Z" fill="white"/>
<path d="M634.314 283.919H641.15V290.751H634.314V283.919Z" fill="white"/>
<path d="M625.241 283.919H632.077V290.751H625.241V283.919Z" fill="white"/>
<path d="M616.167 283.919H623.003V290.751H616.167V283.919Z" fill="white"/>
<path d="M634.314 292.863H641.15V299.695H634.314V292.863Z" fill="white"/>
<path d="M625.241 292.863H632.077V299.695H625.241V292.863Z" fill="white"/>
<path d="M616.167 292.863H623.003V299.695H616.167V292.863Z" fill="white"/>
<path d="M634.314 301.807H641.15V308.639H634.314V301.807Z" fill="white"/>
<path d="M625.241 301.807H632.077V308.639H625.241V301.807Z" fill="white"/>
<path d="M616.167 301.807H623.003V308.639H616.167V301.807Z" fill="white"/>
<path d="M634.314 310.75H641.15V317.583H634.314V310.75Z" fill="white"/>
<path d="M625.241 310.75H632.077V317.583H625.241V310.75Z" fill="white"/>
<path d="M616.167 310.75H623.003V317.583H616.167V310.75Z" fill="white"/>
<path d="M619.647 134.604H710.131V151.995H619.647V134.604Z" fill="#4D4D4D"/>
<path opacity="0.19" d="M616.167 159.075H623.003V165.907H616.167V159.075Z" fill="white"/>
<path opacity="0.24" d="M616.167 168.019H623.003V174.851H616.167V168.019Z" fill="white"/>
<path opacity="0.29" d="M616.167 176.963H623.003V183.795H616.167V176.963Z" fill="white"/>
<path opacity="0.39" d="M616.167 185.783H623.003V192.615H616.167V185.783Z" fill="white"/>
<path opacity="0.21" d="M616.167 194.727H623.003V201.559H616.167V194.727Z" fill="white"/>
<path opacity="0.48" d="M616.167 203.671H623.003V210.503H616.167V203.671Z" fill="white"/>
<path opacity="0.32" d="M616.167 212.615H623.003V219.447H616.167V212.615Z" fill="white"/>
<path opacity="0.13" d="M616.167 221.559H623.003V228.391H616.167V221.559Z" fill="white"/>
<path opacity="0.19" d="M616.167 230.379H623.003V237.211H616.167V230.379Z" fill="white"/>
<path opacity="0.03" d="M616.167 239.323H623.003V246.155H616.167V239.323Z" fill="white"/>
<path opacity="0.36" d="M616.167 248.267H623.003V255.099H616.167V248.267Z" fill="white"/>
<path opacity="0.25" d="M616.167 257.211H623.003V264.043H616.167V257.211Z" fill="white"/>
<path d="M616.167 266.155H623.003V272.987H616.167V266.155Z" fill="white"/>
<path d="M340.117 229.633H381.133V325.657H340.117V229.633Z" fill="#333333"/>
<path d="M362.489 224.789H381.133V230.254H362.489V224.789Z" fill="#333333"/>
<path d="M370.319 221.683H381.133V224.789H370.319V221.683Z" fill="#333333"/>
<path opacity="0.06" d="M357.269 236.341H363.98V241.31H357.269V236.341Z" fill="white"/>
<path opacity="0.12" d="M357.269 248.639H363.98V253.608H357.269V248.639Z" fill="white"/>
<path opacity="0.19" d="M357.269 273.235H363.98V278.204H357.269V273.235Z" fill="white"/>
<path opacity="0.14" d="M357.269 297.831H363.98V302.8H357.269V297.831Z" fill="white"/>
<path opacity="0.1" d="M357.269 310.129H363.98V315.098H357.269V310.129Z" fill="white"/>
<path d="M443.03 240.068H499.209V291.496H443.03V240.068Z" fill="#333333"/>
<path d="M451.854 235.472H490.26V257.583H451.854V235.472Z" fill="#333333"/>
<path d="M438.928 272.49H495.108V323.918H438.928V272.49Z" fill="#333333"/>
<path d="M447.877 267.894H486.283V290.005H447.877V267.894Z" fill="#333333"/>
<path d="M364.105 265.658H420.284V324.912H364.105V265.658Z" fill="#333333"/>
<path d="M372.929 260.44H411.335V286.03H372.929V260.44Z" fill="#333333"/>
<path d="M176.052 283.67H232.232V340.937H176.052V283.67Z" fill="#333333"/>
<path d="M184.877 278.577H223.283V303.297H184.877V278.577Z" fill="#333333"/>
<path d="M297.858 165.41H360.625V324.788H297.858V165.41Z" fill="#333333"/>
<path opacity="0.46" d="M342.354 172.615H357.517V175.473H342.354V172.615Z" fill="#E6E6E6"/>
<path opacity="0.34" d="M321.597 172.615H336.761V175.473H321.597V172.615Z" fill="#E6E6E6"/>
<path opacity="0.52" d="M300.965 172.615H316.128V175.473H300.965V172.615Z" fill="#E6E6E6"/>
<path opacity="0.54" d="M342.354 179.199H357.517V182.056H342.354V179.199Z" fill="#E6E6E6"/>
<path opacity="0.3" d="M321.597 179.199H336.761V182.056H321.597V179.199Z" fill="#E6E6E6"/>
<path opacity="0.06" d="M300.965 179.199H316.128V182.056H300.965V179.199Z" fill="#E6E6E6"/>
<path opacity="0.15" d="M342.354 185.783H357.517V188.64H342.354V185.783Z" fill="#E6E6E6"/>
<path opacity="0.42" d="M321.597 185.783H336.761V188.64H321.597V185.783Z" fill="#E6E6E6"/>
<path opacity="0.48" d="M300.965 185.783H316.128V188.64H300.965V185.783Z" fill="#E6E6E6"/>
<path opacity="0.18" d="M342.354 192.367H357.517V195.224H342.354V192.367Z" fill="#E6E6E6"/>
<path opacity="0.28" d="M300.965 192.367H316.128V195.224H300.965V192.367Z" fill="#E6E6E6"/>
<path opacity="0.29" d="M342.354 198.95H357.517V201.808H342.354V198.95Z" fill="#E6E6E6"/>
<path opacity="0.28" d="M321.597 198.95H336.761V201.808H321.597V198.95Z" fill="#E6E6E6"/>
<path opacity="0.56" d="M300.965 198.95H316.128V201.808H300.965V198.95Z" fill="#E6E6E6"/>
<path opacity="0.41" d="M342.354 205.534H357.517V208.392H342.354V205.534Z" fill="#E6E6E6"/>
<path opacity="0.16" d="M321.597 205.534H336.761V208.392H321.597V205.534Z" fill="#E6E6E6"/>
<path opacity="0.4" d="M300.965 205.534H316.128V208.392H300.965V205.534Z" fill="#E6E6E6"/>
<path opacity="0.1" d="M342.354 212.118H357.517V214.975H342.354V212.118Z" fill="#E6E6E6"/>
<path opacity="0.17" d="M321.597 212.118H336.761V214.975H321.597V212.118Z" fill="#E6E6E6"/>
<path opacity="0.08" d="M300.965 212.118H316.128V214.975H300.965V212.118Z" fill="#E6E6E6"/>
<path opacity="0.49" d="M342.354 218.702H357.517V221.559H342.354V218.702Z" fill="#E6E6E6"/>
<path opacity="0.58" d="M321.597 218.702H336.761V221.559H321.597V218.702Z" fill="#E6E6E6"/>
<path opacity="0.58" d="M300.965 218.702H316.128V221.559H300.965V218.702Z" fill="#E6E6E6"/>
<path opacity="0.26" d="M342.354 225.286H357.517V228.143H342.354V225.286Z" fill="#E6E6E6"/>
<path opacity="0.37" d="M321.597 225.286H336.761V228.143H321.597V225.286Z" fill="#E6E6E6"/>
<path opacity="0.34" d="M300.965 225.286H316.128V228.143H300.965V225.286Z" fill="#E6E6E6"/>
<path opacity="0.55" d="M342.354 231.869H357.517V234.727H342.354V231.869Z" fill="#E6E6E6"/>
<path opacity="0.12" d="M321.597 231.869H336.761V234.727H321.597V231.869Z" fill="#E6E6E6"/>
<path opacity="0.6" d="M300.965 231.869H316.128V234.727H300.965V231.869Z" fill="#E6E6E6"/>
<path opacity="0.02" d="M342.354 238.453H357.517V241.31H342.354V238.453Z" fill="#E6E6E6"/>
<path opacity="0.28" d="M321.597 238.453H336.761V241.31H321.597V238.453Z" fill="#E6E6E6"/>
<path opacity="0.21" d="M300.965 238.453H316.128V241.31H300.965V238.453Z" fill="#E6E6E6"/>
<path opacity="0.57" d="M342.354 245.037H357.517V247.894H342.354V245.037Z" fill="#E6E6E6"/>
<path opacity="0.38" d="M321.597 245.037H336.761V247.894H321.597V245.037Z" fill="#E6E6E6"/>
<path opacity="0.25" d="M300.965 245.037H316.128V247.894H300.965V245.037Z" fill="#E6E6E6"/>
<path opacity="0.15" d="M342.354 251.621H357.517V254.478H342.354V251.621Z" fill="#E6E6E6"/>
<path opacity="0.47" d="M321.597 251.621H336.761V254.478H321.597V251.621Z" fill="#E6E6E6"/>
<path opacity="0.3" d="M300.965 251.621H316.128V254.478H300.965V251.621Z" fill="#E6E6E6"/>
<path opacity="0.4" d="M342.354 258.205H357.517V261.062H342.354V258.205Z" fill="#E6E6E6"/>
<path opacity="0.39" d="M321.597 258.205H336.761V261.062H321.597V258.205Z" fill="#E6E6E6"/>
<path opacity="0.24" d="M300.965 258.205H316.128V261.062H300.965V258.205Z" fill="#E6E6E6"/>
<path opacity="0.46" d="M342.354 264.788H357.517V267.646H342.354V264.788Z" fill="#E6E6E6"/>
<path opacity="0.22" d="M321.597 264.788H336.761V267.646H321.597V264.788Z" fill="#E6E6E6"/>
<path opacity="0.11" d="M300.965 264.788H316.128V267.646H300.965V264.788Z" fill="#E6E6E6"/>
<path opacity="0.11" d="M321.597 271.372H336.761V274.229H321.597V271.372Z" fill="#E6E6E6"/>
<path opacity="0.02" d="M300.965 271.372H316.128V274.229H300.965V271.372Z" fill="#E6E6E6"/>
<path opacity="0.27" d="M342.354 277.956H357.517V280.813H342.354V277.956Z" fill="#E6E6E6"/>
<path opacity="0.21" d="M321.597 277.956H336.761V280.813H321.597V277.956Z" fill="#E6E6E6"/>
<path opacity="0.49" d="M300.965 277.956H316.128V280.813H300.965V277.956Z" fill="#E6E6E6"/>
<path opacity="0.6" d="M342.354 284.54H357.517V287.397H342.354V284.54Z" fill="#E6E6E6"/>
<path opacity="0.31" d="M321.597 284.54H336.761V287.397H321.597V284.54Z" fill="#E6E6E6"/>
<path opacity="0.22" d="M300.965 284.54H316.128V287.397H300.965V284.54Z" fill="#E6E6E6"/>
<path opacity="0.54" d="M342.354 291.124H357.517V293.981H342.354V291.124Z" fill="#E6E6E6"/>
<path opacity="0.6" d="M321.597 291.124H336.761V293.981H321.597V291.124Z" fill="#E6E6E6"/>
<path opacity="0.08" d="M300.965 291.124H316.128V293.981H300.965V291.124Z" fill="#E6E6E6"/>
<path opacity="0.55" d="M321.597 297.707H336.761V300.564H321.597V297.707Z" fill="#E6E6E6"/>
<path d="M300.965 297.707H316.128V300.564H300.965V297.707Z" fill="#E6E6E6"/>
<path opacity="0.6" d="M341.359 172.615H342.354V300.564H341.359V172.615Z" fill="#E6E6E6"/>
<path opacity="0.6" d="M316.128 172.615H317.123V300.564H316.128V172.615Z" fill="#E6E6E6"/>
<path d="M266.536 165.41H297.858V324.788H266.536V165.41Z" fill="#4D4D4D"/>
<path opacity="0.69" d="M271.135 172.615H294.75V175.473H271.135V172.615Z" fill="#E6E6E6"/>
<path opacity="0.79" d="M271.135 179.199H294.75V182.056H271.135V179.199Z" fill="#E6E6E6"/>
<path opacity="0.19" d="M271.135 185.783H294.75V188.64H271.135V185.783Z" fill="#E6E6E6"/>
<path opacity="0.88" d="M271.135 192.367H294.75V195.224H271.135V192.367Z" fill="#E6E6E6"/>
<path opacity="0.5" d="M271.135 198.95H294.75V201.808H271.135V198.95Z" fill="#E6E6E6"/>
<path opacity="0.25" d="M271.135 205.534H294.75V208.392H271.135V205.534Z" fill="#E6E6E6"/>
<path opacity="0.91" d="M271.135 212.118H294.75V214.975H271.135V212.118Z" fill="#E6E6E6"/>
<path opacity="0.02" d="M271.135 218.702H294.75V221.559H271.135V218.702Z" fill="#E6E6E6"/>
<path opacity="0.53" d="M271.135 225.286H294.75V228.143H271.135V225.286Z" fill="#E6E6E6"/>
<path opacity="0.65" d="M271.135 231.869H294.75V234.727H271.135V231.869Z" fill="#E6E6E6"/>
<path d="M271.135 238.453H294.75V241.31H271.135V238.453Z" fill="#E6E6E6"/>
<path opacity="0.8" d="M271.135 245.037H294.75V247.894H271.135V245.037Z" fill="#E6E6E6"/>
<path opacity="0.82" d="M271.135 251.621H294.75V254.478H271.135V251.621Z" fill="#E6E6E6"/>
<path opacity="0.75" d="M271.135 258.205H294.75V261.062H271.135V258.205Z" fill="#E6E6E6"/>
<path opacity="0.31" d="M271.135 264.788H294.75V267.646H271.135V264.788Z" fill="#E6E6E6"/>
<path opacity="0.22" d="M271.135 271.372H294.75V274.229H271.135V271.372Z" fill="#E6E6E6"/>
<path opacity="0.43" d="M271.135 277.956H294.75V280.813H271.135V277.956Z" fill="#E6E6E6"/>
<path opacity="0.68" d="M271.135 284.54H294.75V287.397H271.135V284.54Z" fill="#E6E6E6"/>
<path opacity="0.38" d="M271.135 291.124H294.75V293.981H271.135V291.124Z" fill="#E6E6E6"/>
<path opacity="0.84" d="M271.135 297.707H294.75V300.564H271.135V297.707Z" fill="#E6E6E6"/>
<path d="M349.563 156.963V165.41H308.919V156.963H349.563ZM340.489 162.678H344.715V159.82H340.489V162.678ZM333.902 162.678H338.004V159.82H333.902V162.678ZM327.19 162.678H331.292V159.82H327.19V162.678ZM320.478 162.678H324.704V159.82H320.478V162.678ZM313.767 162.678H317.993V159.82H313.767V162.678Z" fill="#333333"/>
<path d="M301.462 159.821H302.581V162.678H301.462V159.821Z" fill="#333333"/>
<path d="M308.919 156.963V165.41H289.779V156.963H308.919ZM301.462 162.678H305.564V159.82H301.462V162.678ZM292.637 162.678H296.739V159.82H292.637V162.678Z" fill="#4D4D4D"/>
<path d="M292.762 159.821H293.88V162.678H292.762V159.821Z" fill="#333333"/>
<path d="M289.53 335.595H374.048L289.53 273.235V335.595Z" fill="#333333"/>
<path d="M415.561 131.622H422.397V157.585H415.561V131.622Z" fill="#4D4D4D"/>
<path d="M422.273 131.622H429.233V157.585H422.273V131.622Z" fill="#333333"/>
<path d="M408.477 131.622H415.437V157.585H408.477V131.622Z" fill="#666666"/>
<path d="M388.341 175.348H407.731V323.421H388.341V175.348Z" fill="#666666"/>
<path d="M430.476 175.348H447.38V323.421H430.476V175.348Z" fill="#333333"/>
<path d="M407.731 175.348H430.6V323.421H407.731V175.348Z" fill="#4D4D4D"/>
<path opacity="0.6" d="M442.532 179.696H445.018V321.434H442.532V179.696Z" fill="#E6E6E6"/>
<path opacity="0.6" d="M437.685 179.696H440.171V321.434H437.685V179.696Z" fill="#E6E6E6"/>
<path opacity="0.6" d="M432.838 179.696H435.323V321.434H432.838V179.696Z" fill="#E6E6E6"/>
<path d="M403.878 179.696H406.364V321.434H403.878V179.696Z" fill="#E6E6E6"/>
<path d="M399.03 179.696H401.516V321.434H399.03V179.696Z" fill="#E6E6E6"/>
<path d="M389.584 179.696H392.07V321.434H389.584V179.696Z" fill="#E6E6E6"/>
<path d="M394.183 179.696H396.669V321.434H394.183V179.696Z" fill="#E6E6E6"/>
<path opacity="0.8" d="M427.742 321.434H410.59V179.696H427.742V321.434ZM425.007 182.18H413.324V318.949H425.007V182.18Z" fill="#E6E6E6"/>
<path opacity="0.8" d="M422.77 316.589H415.437V184.417H422.77V316.589ZM420.284 187.522H419.414H418.917H417.923V313.483H418.917H419.414H420.284V187.522Z" fill="#E6E6E6"/>
<path opacity="0.8" d="M418.917 187.522H419.414V313.483H418.917V187.522Z" fill="#E6E6E6"/>
<path d="M410.341 149.386H427.493V175.348H410.341V149.386Z" fill="#4D4D4D"/>
<path d="M410.341 149.386H427.493V175.348H410.341V149.386Z" fill="#4D4D4D"/>
<path d="M393.189 149.386H410.341V175.348H393.189V149.386Z" fill="#666666"/>
<path d="M427.493 149.386H444.645V175.348H427.493V149.386Z" fill="#333333"/>
<path d="M408.601 131.622H429.233L422.397 136.342H415.437L408.601 131.622Z" fill="#808080"/>
<path d="M39.829 122.057H49.7723V151.249H39.829V122.057Z" fill="#4D4D4D"/>
<path d="M49.8966 122.057H59.8399V151.249H49.8966V122.057Z" fill="#333333"/>
<path d="M29.8856 122.057H39.829V151.249H29.8856V122.057Z" fill="#666666"/>
<path d="M0.552979 171.373H28.6428V338.203H0.552979V171.373Z" fill="#666666"/>
<path d="M61.7043 171.373H86.0653V338.203H61.7043V171.373Z" fill="#333333"/>
<path d="M28.6428 171.373H61.7043V338.203H28.6428V171.373Z" fill="#4D4D4D"/>
<path opacity="0.4" d="M79.105 176.342H82.7094V335.968H79.105V176.342Z" fill="#E6E6E6"/>
<path opacity="0.4" d="M72.0204 176.342H75.6249V335.968H72.0204V176.342Z" fill="#E6E6E6"/>
<path opacity="0.4" d="M64.9358 176.342H68.5403V335.968H64.9358V176.342Z" fill="#E6E6E6"/>
<path d="M23.0496 176.342H26.6541V335.968H23.0496V176.342Z" fill="#E6E6E6"/>
<path d="M15.9651 176.342H19.5695V335.968H15.9651V176.342Z" fill="#E6E6E6"/>
<path d="M2.41736 176.342H6.02179V335.968H2.41736V176.342Z" fill="#E6E6E6"/>
<path d="M9.00476 176.342H12.6093V335.968H9.00476V176.342Z" fill="#E6E6E6"/>
<path d="M57.4783 335.968H32.6201V176.342H57.4783V335.968ZM53.6253 179.075H36.7217V333.235H53.6253V179.075Z" fill="#E6E6E6"/>
<path d="M50.5181 330.626H39.829V181.684H50.5181V330.626ZM46.7893 185.162H45.4221H44.8006H43.4335V327.148H44.8006H45.4221H46.7893V185.162Z" fill="#E6E6E6"/>
<path d="M44.8006 185.162H45.4221V327.148H44.8006V185.162Z" fill="#E6E6E6"/>
<path d="M32.3715 142.181H57.2297V171.373H32.3715V142.181Z" fill="#4D4D4D"/>
<path d="M32.3715 142.181H57.2297V171.373H32.3715V142.181Z" fill="#4D4D4D"/>
<path d="M7.51324 142.181H32.3715V171.373H7.51324V142.181Z" fill="#666666"/>
<path d="M57.1055 142.181H81.9637V171.373H57.1055V142.181Z" fill="#333333"/>
<path d="M29.7614 122.057H59.8399L49.7723 127.398H39.829L29.7614 122.057Z" fill="#808080"/>
<path d="M111.545 194.479H179.532V217.087H111.545V194.479Z" fill="#E6E6E6"/>
<path d="M152.81 194.479H179.532V217.087H152.81V194.479Z" fill="#B3B3B3"/>
<path d="M152.81 217.211H205.633V327.024H152.81V217.211Z" fill="#333333"/>
<path d="M70.2803 217.211H152.81V327.024H70.2803V217.211Z" fill="#4D4D4D"/>
<path d="M159.273 206.031H199.916V217.211H159.273V206.031Z" fill="#333333"/>
<path d="M82.5851 206.031H140.629V217.211H82.5851V206.031Z" fill="#4D4D4D"/>
<path d="M129.567 185.907H152.81V194.479H129.567V185.907Z" fill="#E6E6E6"/>
<path d="M141.251 177.212H152.81V185.783H141.251V177.212Z" fill="#4D4D4D"/>
<path d="M152.934 177.212H164.493V185.783H152.934V177.212Z" fill="#333333"/>
<path d="M152.81 185.907H170.583V194.479H152.81V185.907Z" fill="#B3B3B3"/>
<path d="M153.555 177.212L152.81 157.336L152.188 177.212H153.555Z" fill="#333333"/>
<path opacity="0.12" d="M188.978 221.683H193.329V226.031H188.978V221.683Z" fill="white"/>
<path opacity="0.25" d="M183.012 221.683H187.363V226.031H183.012V221.683Z" fill="white"/>
<path opacity="0.36" d="M177.047 221.683H181.397V226.031H177.047V221.683Z" fill="white"/>
<path opacity="0.12" d="M171.081 221.683H175.431V226.031H171.081V221.683Z" fill="white"/>
<path opacity="0.14" d="M165.115 221.683H169.465V226.031H165.115V221.683Z" fill="white"/>
<path opacity="0.28" d="M188.978 227.398H193.329V231.745H188.978V227.398Z" fill="white"/>
<path opacity="0.4" d="M183.012 227.398H187.363V231.745H183.012V227.398Z" fill="white"/>
<path opacity="0.16" d="M177.047 227.398H181.397V231.745H177.047V227.398Z" fill="white"/>
<path opacity="0.17" d="M165.115 227.398H169.465V231.745H165.115V227.398Z" fill="white"/>
<path opacity="0.27" d="M188.978 233.112H193.329V237.46H188.978V233.112Z" fill="white"/>
<path opacity="0.45" d="M183.012 233.112H187.363V237.46H183.012V233.112Z" fill="white"/>
<path opacity="0.45" d="M177.047 233.112H181.397V237.46H177.047V233.112Z" fill="white"/>
<path opacity="0.48" d="M171.081 233.112H175.431V237.46H171.081V233.112Z" fill="white"/>
<path opacity="0.25" d="M165.115 233.112H169.465V237.46H165.115V233.112Z" fill="white"/>
<path opacity="0.28" d="M188.978 238.826H193.329V243.174H188.978V238.826Z" fill="white"/>
<path opacity="0.13" d="M183.012 238.826H187.363V243.174H183.012V238.826Z" fill="white"/>
<path opacity="0.07" d="M177.047 238.826H181.397V243.174H177.047V238.826Z" fill="white"/>
<path opacity="0.39" d="M171.081 238.826H175.431V243.174H171.081V238.826Z" fill="white"/>
<path opacity="0.47" d="M165.115 238.826H169.465V243.174H165.115V238.826Z" fill="white"/>
<path opacity="0.28" d="M188.978 244.54H193.329V248.888H188.978V244.54Z" fill="white"/>
<path opacity="0.2" d="M183.012 244.54H187.363V248.888H183.012V244.54Z" fill="white"/>
<path opacity="0.04" d="M177.047 244.54H181.397V248.888H177.047V244.54Z" fill="white"/>
<path opacity="0.43" d="M171.081 244.54H175.431V248.888H171.081V244.54Z" fill="white"/>
<path opacity="0.48" d="M165.115 244.54H169.465V248.888H165.115V244.54Z" fill="white"/>
<path opacity="0.28" d="M188.978 250.254H193.329V254.602H188.978V250.254Z" fill="white"/>
<path opacity="0.19" d="M183.012 250.254H187.363V254.602H183.012V250.254Z" fill="white"/>
<path opacity="0.01" d="M177.047 250.254H181.397V254.602H177.047V250.254Z" fill="white"/>
<path opacity="0.27" d="M171.081 250.254H175.431V254.602H171.081V250.254Z" fill="white"/>
<path opacity="0.24" d="M165.115 250.254H169.465V254.602H165.115V250.254Z" fill="white"/>
<path opacity="0.07" d="M188.978 256.093H193.329V260.441H188.978V256.093Z" fill="white"/>
<path opacity="0.25" d="M183.012 256.093H187.363V260.441H183.012V256.093Z" fill="white"/>
<path opacity="0.26" d="M177.047 256.093H181.397V260.441H177.047V256.093Z" fill="white"/>
<path opacity="0.39" d="M171.081 256.093H175.431V260.441H171.081V256.093Z" fill="white"/>
<path opacity="0.22" d="M165.115 256.093H169.465V260.441H165.115V256.093Z" fill="white"/>
<path opacity="0.15" d="M188.978 261.807H193.329V266.155H188.978V261.807Z" fill="white"/>
<path opacity="0.23" d="M183.012 261.807H187.363V266.155H183.012V261.807Z" fill="white"/>
<path opacity="0.05" d="M177.047 261.807H181.397V266.155H177.047V261.807Z" fill="white"/>
<path opacity="0.2" d="M171.081 261.807H175.431V266.155H171.081V261.807Z" fill="white"/>
<path opacity="0.31" d="M165.115 261.807H169.465V266.155H165.115V261.807Z" fill="white"/>
<path opacity="0.15" d="M188.978 267.521H193.329V271.869H188.978V267.521Z" fill="white"/>
<path opacity="0.33" d="M183.012 267.521H187.363V271.869H183.012V267.521Z" fill="white"/>
<path opacity="0.46" d="M177.047 267.521H181.397V271.869H177.047V267.521Z" fill="white"/>
<path opacity="0.25" d="M171.081 267.521H175.431V271.869H171.081V267.521Z" fill="white"/>
<path opacity="0.43" d="M165.115 267.521H169.465V271.869H165.115V267.521Z" fill="white"/>
<path opacity="0.4" d="M188.978 273.236H193.329V277.583H188.978V273.236Z" fill="white"/>
<path opacity="0.39" d="M183.012 273.236H187.363V277.583H183.012V273.236Z" fill="white"/>
<path opacity="0.01" d="M177.047 273.236H181.397V277.583H177.047V273.236Z" fill="white"/>
<path opacity="0.12" d="M171.081 273.236H175.431V277.583H171.081V273.236Z" fill="white"/>
<path opacity="0.07" d="M165.115 273.236H169.465V277.583H165.115V273.236Z" fill="white"/>
<path opacity="0.07" d="M188.978 278.95H193.329V283.298H188.978V278.95Z" fill="white"/>
<path opacity="0.02" d="M183.012 278.95H187.363V283.298H183.012V278.95Z" fill="white"/>
<path opacity="0.12" d="M177.047 278.95H181.397V283.298H177.047V278.95Z" fill="white"/>
<path opacity="0.23" d="M171.081 278.95H175.431V283.298H171.081V278.95Z" fill="white"/>
<path opacity="0.26" d="M165.115 278.95H169.465V283.298H165.115V278.95Z" fill="white"/>
<path opacity="0.27" d="M188.978 284.664H193.329V289.012H188.978V284.664Z" fill="white"/>
<path opacity="0.38" d="M183.012 284.664H187.363V289.012H183.012V284.664Z" fill="white"/>
<path opacity="0.05" d="M177.047 284.664H181.397V289.012H177.047V284.664Z" fill="white"/>
<path opacity="0.45" d="M171.081 284.664H175.431V289.012H171.081V284.664Z" fill="white"/>
<path opacity="0.15" d="M165.115 284.664H169.465V289.012H165.115V284.664Z" fill="white"/>
<path opacity="0.06" d="M188.978 290.378H193.329V294.726H188.978V290.378Z" fill="white"/>
<path opacity="0.47" d="M183.012 290.378H187.363V294.726H183.012V290.378Z" fill="white"/>
<path opacity="0.15" d="M177.047 290.378H181.397V294.726H177.047V290.378Z" fill="white"/>
<path opacity="0.44" d="M171.081 290.378H175.431V294.726H171.081V290.378Z" fill="white"/>
<path opacity="0.14" d="M165.115 290.378H169.465V294.726H165.115V290.378Z" fill="white"/>
<path opacity="0.15" d="M188.978 296.093H193.329V300.44H188.978V296.093Z" fill="white"/>
<path opacity="0.43" d="M183.012 296.093H187.363V300.44H183.012V296.093Z" fill="white"/>
<path opacity="0.07" d="M177.047 296.093H181.397V300.44H177.047V296.093Z" fill="white"/>
<path opacity="0.47" d="M171.081 296.093H175.431V300.44H171.081V296.093Z" fill="white"/>
<path opacity="0.11" d="M165.115 296.093H169.465V300.44H165.115V296.093Z" fill="white"/>
<path opacity="0.07" d="M188.978 301.807H193.329V306.154H188.978V301.807Z" fill="white"/>
<path opacity="0.34" d="M183.012 301.807H187.363V306.154H183.012V301.807Z" fill="white"/>
<path opacity="0.5" d="M177.047 301.807H181.397V306.154H177.047V301.807Z" fill="white"/>
<path opacity="0.36" d="M171.081 301.807H175.431V306.154H171.081V301.807Z" fill="white"/>
<path opacity="0.34" d="M165.115 301.807H169.465V306.154H165.115V301.807Z" fill="white"/>
<path opacity="0.47" d="M188.978 307.521H193.329V311.869H188.978V307.521Z" fill="white"/>
<path opacity="0.41" d="M183.012 307.521H187.363V311.869H183.012V307.521Z" fill="white"/>
<path opacity="0.3" d="M177.047 307.521H181.397V311.869H177.047V307.521Z" fill="white"/>
<path opacity="0.33" d="M171.081 307.521H175.431V311.869H171.081V307.521Z" fill="white"/>
<path opacity="0.12" d="M165.115 307.521H169.465V311.869H165.115V307.521Z" fill="white"/>
<path opacity="0.3" d="M138.392 221.683H142.742V226.031H138.392V221.683Z" fill="white"/>
<path opacity="0.72" d="M132.674 221.683H137.025V226.031H132.674V221.683Z" fill="white"/>
<path opacity="0.7" d="M126.833 221.683H131.183V226.031H126.833V221.683Z" fill="white"/>
<path opacity="0.52" d="M120.991 221.683H125.341V226.031H120.991V221.683Z" fill="white"/>
<path opacity="0.2" d="M115.149 221.683H119.5V226.031H115.149V221.683Z" fill="white"/>
<path opacity="0.32" d="M109.432 221.683H113.782V226.031H109.432V221.683Z" fill="white"/>
<path opacity="0.13" d="M103.59 221.683H107.941V226.031H103.59V221.683Z" fill="white"/>
<path opacity="0.38" d="M97.7487 221.683H102.099V226.031H97.7487V221.683Z" fill="white"/>
<path opacity="0.61" d="M92.0312 221.683H96.3815V226.031H92.0312V221.683Z" fill="white"/>
<path d="M86.1896 221.683H90.5399V226.031H86.1896V221.683Z" fill="white"/>
<path opacity="0.91" d="M80.348 221.683H84.6981V226.031H80.348V221.683Z" fill="white"/>
<path opacity="0.66" d="M138.392 227.398H142.742V231.745H138.392V227.398Z" fill="white"/>
<path opacity="0.31" d="M132.674 227.398H137.025V231.745H132.674V227.398Z" fill="white"/>
<path opacity="0.95" d="M126.833 227.398H131.183V231.745H126.833V227.398Z" fill="white"/>
<path opacity="0.7" d="M120.991 227.398H125.341V231.745H120.991V227.398Z" fill="white"/>
<path opacity="0.12" d="M115.149 227.398H119.5V231.745H115.149V227.398Z" fill="white"/>
<path opacity="0.24" d="M109.432 227.398H113.782V231.745H109.432V227.398Z" fill="white"/>
<path opacity="0.66" d="M103.59 227.398H107.941V231.745H103.59V227.398Z" fill="white"/>
<path opacity="0.71" d="M97.7487 227.398H102.099V231.745H97.7487V227.398Z" fill="white"/>
<path opacity="0.42" d="M92.0312 227.398H96.3815V231.745H92.0312V227.398Z" fill="white"/>
<path opacity="0.09" d="M86.1896 227.398H90.5399V231.745H86.1896V227.398Z" fill="white"/>
<path opacity="0.32" d="M80.348 227.398H84.6981V231.745H80.348V227.398Z" fill="white"/>
<path opacity="0.65" d="M138.392 233.112H142.742V237.46H138.392V233.112Z" fill="white"/>
<path d="M132.674 233.112H137.025V237.46H132.674V233.112Z" fill="white"/>
<path d="M126.833 233.112H131.183V237.46H126.833V233.112Z" fill="white"/>
<path opacity="0.71" d="M120.991 233.112H125.341V237.46H120.991V233.112Z" fill="white"/>
<path opacity="0.2" d="M115.149 233.112H119.5V237.46H115.149V233.112Z" fill="white"/>
<path opacity="0.19" d="M109.432 233.112H113.782V237.46H109.432V233.112Z" fill="white"/>
<path opacity="0.62" d="M103.59 233.112H107.941V237.46H103.59V233.112Z" fill="white"/>
<path opacity="0.93" d="M97.7487 233.112H102.099V237.46H97.7487V233.112Z" fill="white"/>
<path opacity="0.56" d="M92.0312 233.112H96.3815V237.46H92.0312V233.112Z" fill="white"/>
<path opacity="0.57" d="M86.1896 233.112H90.5399V237.46H86.1896V233.112Z" fill="white"/>
<path opacity="0.52" d="M80.348 233.112H84.6981V237.46H80.348V233.112Z" fill="white"/>
<path opacity="0.74" d="M138.392 238.826H142.742V243.174H138.392V238.826Z" fill="white"/>
<path opacity="0.56" d="M132.674 238.826H137.025V243.174H132.674V238.826Z" fill="white"/>
<path opacity="0.78" d="M126.833 238.826H131.183V243.174H126.833V238.826Z" fill="white"/>
<path opacity="0.41" d="M120.991 238.826H125.341V243.174H120.991V238.826Z" fill="white"/>
<path opacity="0.14" d="M115.149 238.826H119.5V243.174H115.149V238.826Z" fill="white"/>
<path opacity="0.28" d="M109.432 238.826H113.782V243.174H109.432V238.826Z" fill="white"/>
<path opacity="0.36" d="M103.59 238.826H107.941V243.174H103.59V238.826Z" fill="white"/>
<path opacity="0.14" d="M97.7487 238.826H102.099V243.174H97.7487V238.826Z" fill="white"/>
<path opacity="0.5" d="M92.0312 238.826H96.3815V243.174H92.0312V238.826Z" fill="white"/>
<path opacity="0.98" d="M86.1896 238.826H90.5399V243.174H86.1896V238.826Z" fill="white"/>
<path opacity="0.59" d="M80.348 238.826H84.6981V243.174H80.348V238.826Z" fill="white"/>
<path opacity="0.07" d="M138.392 244.54H142.742V248.888H138.392V244.54Z" fill="white"/>
<path opacity="0.1" d="M132.674 244.54H137.025V248.888H132.674V244.54Z" fill="white"/>
<path opacity="0.88" d="M126.833 244.54H131.183V248.888H126.833V244.54Z" fill="white"/>
<path opacity="0.68" d="M120.991 244.54H125.341V248.888H120.991V244.54Z" fill="white"/>
<path opacity="0.81" d="M115.149 244.54H119.5V248.888H115.149V244.54Z" fill="white"/>
<path opacity="0.62" d="M109.432 244.54H113.782V248.888H109.432V244.54Z" fill="white"/>
<path opacity="0.97" d="M103.59 244.54H107.941V248.888H103.59V244.54Z" fill="white"/>
<path opacity="0.81" d="M97.7487 244.54H102.099V248.888H97.7487V244.54Z" fill="white"/>
<path opacity="0.79" d="M92.0312 244.54H96.3815V248.888H92.0312V244.54Z" fill="white"/>
<path opacity="0.03" d="M86.1896 244.54H90.5399V248.888H86.1896V244.54Z" fill="white"/>
<path opacity="0.95" d="M80.348 244.54H84.6981V248.888H80.348V244.54Z" fill="white"/>
<path opacity="0.62" d="M138.392 250.254H142.742V254.602H138.392V250.254Z" fill="white"/>
<path opacity="0.22" d="M132.674 250.254H137.025V254.602H132.674V250.254Z" fill="white"/>
<path opacity="0.42" d="M126.833 250.254H131.183V254.602H126.833V250.254Z" fill="white"/>
<path opacity="0.56" d="M120.991 250.254H125.341V254.602H120.991V250.254Z" fill="white"/>
<path opacity="0.03" d="M115.149 250.254H119.5V254.602H115.149V250.254Z" fill="white"/>
<path opacity="0.64" d="M109.432 250.254H113.782V254.602H109.432V250.254Z" fill="white"/>
<path opacity="0.82" d="M103.59 250.254H107.941V254.602H103.59V250.254Z" fill="white"/>
<path opacity="0.52" d="M97.7487 250.254H102.099V254.602H97.7487V250.254Z" fill="white"/>
<path opacity="0.46" d="M92.0312 250.254H96.3815V254.602H92.0312V250.254Z" fill="white"/>
<path opacity="0.27" d="M86.1896 250.254H90.5399V254.602H86.1896V250.254Z" fill="white"/>
<path opacity="0.46" d="M80.348 250.254H84.6981V254.602H80.348V250.254Z" fill="white"/>
<path opacity="0.66" d="M138.392 256.093H142.742V260.441H138.392V256.093Z" fill="white"/>
<path opacity="0.7" d="M132.674 256.093H137.025V260.441H132.674V256.093Z" fill="white"/>
<path opacity="0.94" d="M126.833 256.093H131.183V260.441H126.833V256.093Z" fill="white"/>
<path opacity="0.5" d="M120.991 256.093H125.341V260.441H120.991V256.093Z" fill="white"/>
<path opacity="0.12" d="M115.149 256.093H119.5V260.441H115.149V256.093Z" fill="white"/>
<path opacity="0.36" d="M109.432 256.093H113.782V260.441H109.432V256.093Z" fill="white"/>
<path opacity="0.51" d="M103.59 256.093H107.941V260.441H103.59V256.093Z" fill="white"/>
<path opacity="0.37" d="M97.7487 256.093H102.099V260.441H97.7487V256.093Z" fill="white"/>
<path opacity="0.66" d="M92.0312 256.093H96.3815V260.441H92.0312V256.093Z" fill="white"/>
<path opacity="0.42" d="M86.1896 256.093H90.5399V260.441H86.1896V256.093Z" fill="white"/>
<path opacity="0.5" d="M80.348 256.093H84.6981V260.441H80.348V256.093Z" fill="white"/>
<path opacity="0.52" d="M138.392 261.807H142.742V266.155H138.392V261.807Z" fill="white"/>
<path opacity="0.61" d="M132.674 261.807H137.025V266.155H132.674V261.807Z" fill="white"/>
<path opacity="0.84" d="M126.833 261.807H131.183V266.155H126.833V261.807Z" fill="white"/>
<path opacity="0.89" d="M120.991 261.807H125.341V266.155H120.991V261.807Z" fill="white"/>
<path opacity="0.33" d="M115.149 261.807H119.5V266.155H115.149V261.807Z" fill="white"/>
<path opacity="0.25" d="M109.432 261.807H113.782V266.155H109.432V261.807Z" fill="white"/>
<path opacity="0.95" d="M103.59 261.807H107.941V266.155H103.59V261.807Z" fill="white"/>
<path opacity="0.09" d="M97.7487 261.807H102.099V266.155H97.7487V261.807Z" fill="white"/>
<path opacity="0.44" d="M92.0312 261.807H96.3815V266.155H92.0312V261.807Z" fill="white"/>
<path opacity="0.51" d="M86.1896 261.807H90.5399V266.155H86.1896V261.807Z" fill="white"/>
<path opacity="0.97" d="M80.348 261.807H84.6981V266.155H80.348V261.807Z" fill="white"/>
<path opacity="0.26" d="M138.392 267.521H142.742V271.869H138.392V267.521Z" fill="white"/>
<path opacity="0.92" d="M132.674 267.521H137.025V271.869H132.674V267.521Z" fill="white"/>
<path opacity="0.33" d="M126.833 267.521H131.183V271.869H126.833V267.521Z" fill="white"/>
<path opacity="0.23" d="M120.991 267.521H125.341V271.869H120.991V267.521Z" fill="white"/>
<path opacity="0.42" d="M115.149 267.521H119.5V271.869H115.149V267.521Z" fill="white"/>
<path opacity="0.57" d="M109.432 267.521H113.782V271.869H109.432V267.521Z" fill="white"/>
<path opacity="0.73" d="M103.59 267.521H107.941V271.869H103.59V267.521Z" fill="white"/>
<path opacity="0.87" d="M97.7487 267.521H102.099V271.869H97.7487V267.521Z" fill="white"/>
<path opacity="0.22" d="M92.0312 267.521H96.3815V271.869H92.0312V267.521Z" fill="white"/>
<path opacity="0.89" d="M86.1896 267.521H90.5399V271.869H86.1896V267.521Z" fill="white"/>
<path opacity="0.73" d="M80.348 267.521H84.6981V271.869H80.348V267.521Z" fill="white"/>
<path opacity="0.35" d="M138.392 273.236H142.742V277.583H138.392V273.236Z" fill="white"/>
<path opacity="0.81" d="M132.674 273.236H137.025V277.583H132.674V273.236Z" fill="white"/>
<path opacity="0.56" d="M126.833 273.236H131.183V277.583H126.833V273.236Z" fill="white"/>
<path opacity="0.81" d="M120.991 273.236H125.341V277.583H120.991V273.236Z" fill="white"/>
<path opacity="0.87" d="M115.149 273.236H119.5V277.583H115.149V273.236Z" fill="white"/>
<path opacity="0.39" d="M109.432 273.236H113.782V277.583H109.432V273.236Z" fill="white"/>
<path opacity="0.31" d="M103.59 273.236H107.941V277.583H103.59V273.236Z" fill="white"/>
<path opacity="0.98" d="M97.7487 273.236H102.099V277.583H97.7487V273.236Z" fill="white"/>
<path opacity="0.17" d="M92.0312 273.236H96.3815V277.583H92.0312V273.236Z" fill="white"/>
<path opacity="0.06" d="M86.1896 273.236H90.5399V277.583H86.1896V273.236Z" fill="white"/>
<path opacity="0.57" d="M80.348 273.236H84.6981V277.583H80.348V273.236Z" fill="white"/>
<path opacity="0.67" d="M138.392 278.95H142.742V283.298H138.392V278.95Z" fill="white"/>
<path opacity="0.83" d="M132.674 278.95H137.025V283.298H132.674V278.95Z" fill="white"/>
<path opacity="0.99" d="M126.833 278.95H131.183V283.298H126.833V278.95Z" fill="white"/>
<path opacity="0.62" d="M120.991 278.95H125.341V283.298H120.991V278.95Z" fill="white"/>
<path opacity="0.87" d="M115.149 278.95H119.5V283.298H115.149V278.95Z" fill="white"/>
<path opacity="0.14" d="M109.432 278.95H113.782V283.298H109.432V278.95Z" fill="white"/>
<path opacity="0.12" d="M103.59 278.95H107.941V283.298H103.59V278.95Z" fill="white"/>
<path opacity="0.11" d="M97.7487 278.95H102.099V283.298H97.7487V278.95Z" fill="white"/>
<path opacity="0.39" d="M92.0312 278.95H96.3815V283.298H92.0312V278.95Z" fill="white"/>
<path opacity="0.58" d="M86.1896 278.95H90.5399V283.298H86.1896V278.95Z" fill="white"/>
<path opacity="0.54" d="M80.348 278.95H84.6981V283.298H80.348V278.95Z" fill="white"/>
<path opacity="0.99" d="M138.392 284.664H142.742V289.012H138.392V284.664Z" fill="white"/>
<path opacity="0.28" d="M132.674 284.664H137.025V289.012H132.674V284.664Z" fill="white"/>
<path opacity="0.78" d="M126.833 284.664H131.183V289.012H126.833V284.664Z" fill="white"/>
<path opacity="0.65" d="M120.991 284.664H125.341V289.012H120.991V284.664Z" fill="white"/>
<path opacity="0.32" d="M115.149 284.664H119.5V289.012H115.149V284.664Z" fill="white"/>
<path opacity="0.55" d="M109.432 284.664H113.782V289.012H109.432V284.664Z" fill="white"/>
<path opacity="0.4" d="M103.59 284.664H107.941V289.012H103.59V284.664Z" fill="white"/>
<path opacity="0.22" d="M97.7487 284.664H102.099V289.012H97.7487V284.664Z" fill="white"/>
<path opacity="0.87" d="M92.0312 284.664H96.3815V289.012H92.0312V284.664Z" fill="white"/>
<path opacity="0.02" d="M86.1896 284.664H90.5399V289.012H86.1896V284.664Z" fill="white"/>
<path opacity="0.39" d="M80.348 284.664H84.6981V289.012H80.348V284.664Z" fill="white"/>
<path opacity="0.89" d="M138.392 290.378H142.742V294.726H138.392V290.378Z" fill="white"/>
<path opacity="0.97" d="M132.674 290.378H137.025V294.726H132.674V290.378Z" fill="white"/>
<path opacity="0.79" d="M126.833 290.378H131.183V294.726H126.833V290.378Z" fill="white"/>
<path opacity="0.41" d="M120.991 290.378H125.341V294.726H120.991V290.378Z" fill="white"/>
<path opacity="0.13" d="M115.149 290.378H119.5V294.726H115.149V290.378Z" fill="white"/>
<path opacity="0.9" d="M109.432 290.378H113.782V294.726H109.432V290.378Z" fill="white"/>
<path opacity="0.98" d="M103.59 290.378H107.941V294.726H103.59V290.378Z" fill="white"/>
<path opacity="0.67" d="M97.7487 290.378H102.099V294.726H97.7487V290.378Z" fill="white"/>
<path opacity="0.65" d="M92.0312 290.378H96.3815V294.726H92.0312V290.378Z" fill="white"/>
<path opacity="0.89" d="M86.1896 290.378H90.5399V294.726H86.1896V290.378Z" fill="white"/>
<path opacity="0.98" d="M80.348 290.378H84.6981V294.726H80.348V290.378Z" fill="white"/>
<path opacity="0.29" d="M138.392 296.093H142.742V300.44H138.392V296.093Z" fill="white"/>
<path opacity="0.74" d="M132.674 296.093H137.025V300.44H132.674V296.093Z" fill="white"/>
<path opacity="0.64" d="M126.833 296.093H131.183V300.44H126.833V296.093Z" fill="white"/>
<path opacity="0.65" d="M120.991 296.093H125.341V300.44H120.991V296.093Z" fill="white"/>
<path opacity="0.07" d="M115.149 296.093H119.5V300.44H115.149V296.093Z" fill="white"/>
<path opacity="0.16" d="M109.432 296.093H113.782V300.44H109.432V296.093Z" fill="white"/>
<path opacity="0.84" d="M103.59 296.093H107.941V300.44H103.59V296.093Z" fill="white"/>
<path opacity="0.88" d="M97.7487 296.093H102.099V300.44H97.7487V296.093Z" fill="white"/>
<path opacity="0.57" d="M92.0312 296.093H96.3815V300.44H92.0312V296.093Z" fill="white"/>
<path opacity="0.31" d="M86.1896 296.093H90.5399V300.44H86.1896V296.093Z" fill="white"/>
<path opacity="0.03" d="M80.348 296.093H84.6981V300.44H80.348V296.093Z" fill="white"/>
<path opacity="0.3" d="M138.392 301.807H142.742V306.154H138.392V301.807Z" fill="white"/>
<path opacity="0.59" d="M132.674 301.807H137.025V306.154H132.674V301.807Z" fill="white"/>
<path opacity="0.93" d="M126.833 301.807H131.183V306.154H126.833V301.807Z" fill="white"/>
<path opacity="0.06" d="M120.991 301.807H125.341V306.154H120.991V301.807Z" fill="white"/>
<path opacity="0.74" d="M115.149 301.807H119.5V306.154H115.149V301.807Z" fill="white"/>
<path opacity="0.22" d="M109.432 301.807H113.782V306.154H109.432V301.807Z" fill="white"/>
<path opacity="0.51" d="M103.59 301.807H107.941V306.154H103.59V301.807Z" fill="white"/>
<path opacity="0.7" d="M97.7487 301.807H102.099V306.154H97.7487V301.807Z" fill="white"/>
<path opacity="0.47" d="M92.0312 301.807H96.3815V306.154H92.0312V301.807Z" fill="white"/>
<path opacity="0.08" d="M86.1896 301.807H90.5399V306.154H86.1896V301.807Z" fill="white"/>
<path opacity="0.93" d="M80.348 301.807H84.6981V306.154H80.348V301.807Z" fill="white"/>
<path opacity="0.81" d="M138.392 307.521H142.742V311.869H138.392V307.521Z" fill="white"/>
<path opacity="0.9" d="M132.674 307.521H137.025V311.869H132.674V307.521Z" fill="white"/>
<path opacity="0.55" d="M126.833 307.521H131.183V311.869H126.833V307.521Z" fill="white"/>
<path opacity="0.14" d="M120.991 307.521H125.341V311.869H120.991V307.521Z" fill="white"/>
<path opacity="0.66" d="M115.149 307.521H119.5V311.869H115.149V307.521Z" fill="white"/>
<path opacity="0.92" d="M109.432 307.521H113.782V311.869H109.432V307.521Z" fill="white"/>
<path opacity="0.4" d="M103.59 307.521H107.941V311.869H103.59V307.521Z" fill="white"/>
<path opacity="0.6" d="M97.7487 307.521H102.099V311.869H97.7487V307.521Z" fill="white"/>
<path opacity="0.99" d="M92.0312 307.521H96.3815V311.869H92.0312V307.521Z" fill="white"/>
<path opacity="0.68" d="M86.1896 307.521H90.5399V311.869H86.1896V307.521Z" fill="white"/>
<path opacity="0.01" d="M80.348 307.521H84.6981V311.869H80.348V307.521Z" fill="white"/>
<path d="M211.848 193.733H252.864V322.179H211.848V193.733Z" fill="#333333"/>
<path d="M234.22 187.273H252.864V194.478H234.22V187.273Z" fill="#333333"/>
<path d="M242.051 183.05H252.864V187.274H242.051V183.05Z" fill="#333333"/>
<path opacity="0.25" d="M229.124 202.801H235.836V209.509H229.124V202.801Z" fill="white"/>
<path opacity="0.15" d="M229.124 219.323H235.836V226.031H229.124V219.323Z" fill="white"/>
<path opacity="0.19" d="M229.124 252.242H235.836V258.95H229.124V252.242Z" fill="white"/>
<path opacity="0.17" d="M229.124 268.639H235.836V275.347H229.124V268.639Z" fill="white"/>
<path opacity="0.22" d="M229.124 285.036H235.836V291.744H229.124V285.036Z" fill="white"/>
<path d="M229.124 301.558H235.836V308.266H229.124V301.558Z" fill="white"/>
<path d="M242.299 265.285H280.705V276.59H242.299V265.285Z" fill="#333333"/>
<path d="M223.159 265.285H242.299V276.59H223.159V265.285Z" fill="#4D4D4D"/>
<path d="M280.705 265.285L268.773 259.571L242.299 265.285H280.705Z" fill="#333333"/>
<path d="M268.773 259.571L242.299 265.285H223.159L268.773 259.571Z" fill="#4D4D4D"/>
<path d="M233.35 273.235H289.53V324.663H233.35V273.235Z" fill="#333333"/>
<path d="M214.707 273.235H233.35V324.663H214.707V273.235Z" fill="#4D4D4D"/>
<path opacity="0.81" d="M219.057 276.838H229.124V280.565H219.057V276.838Z" fill="white"/>
<path opacity="0.76" d="M219.057 283.67H229.124V287.397H219.057V283.67Z" fill="white"/>
<path opacity="0.32" d="M219.057 290.502H229.124V294.229H219.057V290.502Z" fill="white"/>
<path opacity="0.49" d="M219.057 297.459H229.124V301.185H219.057V297.459Z" fill="white"/>
<path opacity="0.1" d="M270.513 276.838H280.581V280.565H270.513V276.838Z" fill="white"/>
<path opacity="0.04" d="M256.469 276.838H266.536V280.565H256.469V276.838Z" fill="white"/>
<path opacity="0.07" d="M242.299 276.838H252.367V280.565H242.299V276.838Z" fill="white"/>
<path opacity="0.06" d="M270.513 283.67H280.581V287.397H270.513V283.67Z" fill="white"/>
<path opacity="0.44" d="M256.469 283.67H266.536V287.397H256.469V283.67Z" fill="white"/>
<path opacity="0.24" d="M242.299 283.67H252.367V287.397H242.299V283.67Z" fill="white"/>
<path opacity="0.55" d="M270.513 290.502H280.581V294.229H270.513V290.502Z" fill="white"/>
<path opacity="0.02" d="M256.469 290.502H266.536V294.229H256.469V290.502Z" fill="white"/>
<path opacity="0.14" d="M242.299 290.502H252.367V294.229H242.299V290.502Z" fill="white"/>
<path opacity="0.43" d="M270.513 297.459H280.581V301.185H270.513V297.459Z" fill="white"/>
<path opacity="0.41" d="M256.469 297.459H266.536V301.185H256.469V297.459Z" fill="white"/>
<path opacity="0.46" d="M242.299 297.459H252.367V301.185H242.299V297.459Z" fill="white"/>
<path opacity="0.45" d="M270.513 304.291H280.581V308.018H270.513V304.291Z" fill="white"/>
<path opacity="0.33" d="M256.469 304.291H266.536V308.018H256.469V304.291Z" fill="white"/>
<path opacity="0.05" d="M242.299 304.291H252.367V308.018H242.299V304.291Z" fill="white"/>
<path d="M506.667 221.807H541.468V329.011H506.667V221.807Z" fill="#333333"/>
<path d="M467.018 221.807H506.542V329.011H467.018V221.807Z" fill="#4D4D4D"/>
<path d="M506.667 230.876H541.468V232.739H506.667V230.876Z" fill="#4D4D4D"/>
<path d="M467.018 230.876H506.542V232.739H467.018V230.876Z" fill="#333333"/>
<path opacity="0.47" d="M534.881 234.851H538.609V238.577H534.881V234.851Z" fill="white"/>
<path opacity="0.26" d="M529.785 234.851H533.514V238.577H529.785V234.851Z" fill="white"/>
<path opacity="0.32" d="M524.689 234.851H528.418V238.577H524.689V234.851Z" fill="white"/>
<path opacity="0.25" d="M519.593 234.851H523.322V238.577H519.593V234.851Z" fill="white"/>
<path opacity="0.12" d="M509.401 234.851H513.13V238.577H509.401V234.851Z" fill="white"/>
<path opacity="0.32" d="M534.881 239.944H538.609V243.671H534.881V239.944Z" fill="white"/>
<path opacity="0.22" d="M524.689 239.944H528.418V243.671H524.689V239.944Z" fill="white"/>
<path opacity="0.47" d="M519.593 239.944H523.322V243.671H519.593V239.944Z" fill="white"/>
<path opacity="0.22" d="M514.497 239.944H518.226V243.671H514.497V239.944Z" fill="white"/>
<path opacity="0.32" d="M509.401 239.944H513.13V243.671H509.401V239.944Z" fill="white"/>
<path opacity="0.37" d="M534.881 245.037H538.609V248.764H534.881V245.037Z" fill="white"/>
<path opacity="0.34" d="M529.785 245.037H533.514V248.764H529.785V245.037Z" fill="white"/>
<path opacity="0.18" d="M524.689 245.037H528.418V248.764H524.689V245.037Z" fill="white"/>
<path opacity="0.28" d="M519.593 245.037H523.322V248.764H519.593V245.037Z" fill="white"/>
<path opacity="0.2" d="M509.401 245.037H513.13V248.764H509.401V245.037Z" fill="white"/>
<path opacity="0.18" d="M534.881 250.13H538.609V253.857H534.881V250.13Z" fill="white"/>
<path opacity="0.33" d="M524.689 250.13H528.418V253.857H524.689V250.13Z" fill="white"/>
<path opacity="0.05" d="M519.593 250.13H523.322V253.857H519.593V250.13Z" fill="white"/>
<path opacity="0.08" d="M514.497 250.13H518.226V253.857H514.497V250.13Z" fill="white"/>
<path opacity="0.08" d="M519.593 255.223H523.322V258.95H519.593V255.223Z" fill="white"/>
<path opacity="0.02" d="M514.497 255.223H518.226V258.95H514.497V255.223Z" fill="white"/>
<path opacity="0.03" d="M534.881 260.316H538.609V264.043H534.881V260.316Z" fill="white"/>
<path opacity="0.46" d="M529.785 260.316H533.514V264.043H529.785V260.316Z" fill="white"/>
<path opacity="0.05" d="M524.689 260.316H528.418V264.043H524.689V260.316Z" fill="white"/>
<path opacity="0.2" d="M519.593 260.316H523.322V264.043H519.593V260.316Z" fill="white"/>
<path opacity="0.23" d="M514.497 260.316H518.226V264.043H514.497V260.316Z" fill="white"/>
<path opacity="0.17" d="M534.881 265.409H538.609V269.136H534.881V265.409Z" fill="white"/>
<path opacity="0.08" d="M529.785 265.409H533.514V269.136H529.785V265.409Z" fill="white"/>
<path opacity="0.14" d="M524.689 265.409H528.418V269.136H524.689V265.409Z" fill="white"/>
<path opacity="0.24" d="M514.497 265.409H518.226V269.136H514.497V265.409Z" fill="white"/>
<path opacity="0.28" d="M534.881 270.502H538.609V274.229H534.881V270.502Z" fill="white"/>
<path opacity="0.3" d="M529.785 270.502H533.514V274.229H529.785V270.502Z" fill="white"/>
<path opacity="0.23" d="M524.689 270.502H528.418V274.229H524.689V270.502Z" fill="white"/>
<path opacity="0.02" d="M519.593 270.502H523.322V274.229H519.593V270.502Z" fill="white"/>
<path opacity="0.04" d="M514.497 270.502H518.226V274.229H514.497V270.502Z" fill="white"/>
<path opacity="0.3" d="M509.401 270.502H513.13V274.229H509.401V270.502Z" fill="white"/>
<path opacity="0.08" d="M529.785 275.471H533.514V279.198H529.785V275.471Z" fill="white"/>
<path opacity="0.4" d="M509.401 275.471H513.13V279.198H509.401V275.471Z" fill="white"/>
<path opacity="0.31" d="M534.881 280.564H538.609V284.291H534.881V280.564Z" fill="white"/>
<path opacity="0.31" d="M529.785 280.564H533.514V284.291H529.785V280.564Z" fill="white"/>
<path opacity="0.12" d="M524.689 280.564H528.418V284.291H524.689V280.564Z" fill="white"/>
<path opacity="0.19" d="M514.497 280.564H518.226V284.291H514.497V280.564Z" fill="white"/>
<path opacity="0.43" d="M509.401 280.564H513.13V284.291H509.401V280.564Z" fill="white"/>
<path opacity="0.12" d="M534.881 285.658H538.609V289.385H534.881V285.658Z" fill="white"/>
<path opacity="0.42" d="M519.593 285.658H523.322V289.385H519.593V285.658Z" fill="white"/>
<path opacity="0.31" d="M509.401 285.658H513.13V289.385H509.401V285.658Z" fill="white"/>
<path opacity="0.23" d="M534.881 290.751H538.609V294.477H534.881V290.751Z" fill="white"/>
<path opacity="0.31" d="M519.593 290.751H523.322V294.477H519.593V290.751Z" fill="white"/>
<path opacity="0.33" d="M509.401 290.751H513.13V294.477H509.401V290.751Z" fill="white"/>
<path opacity="0.49" d="M534.881 295.844H538.609V299.571H534.881V295.844Z" fill="white"/>
<path opacity="0.06" d="M529.785 295.844H533.514V299.571H529.785V295.844Z" fill="white"/>
<path opacity="0.17" d="M519.593 295.844H523.322V299.571H519.593V295.844Z" fill="white"/>
<path opacity="0.01" d="M514.497 295.844H518.226V299.571H514.497V295.844Z" fill="white"/>
<path opacity="0.48" d="M509.401 295.844H513.13V299.571H509.401V295.844Z" fill="white"/>
<path opacity="0.05" d="M534.881 300.937H538.609V304.664H534.881V300.937Z" fill="white"/>
<path opacity="0.23" d="M529.785 300.937H533.514V304.664H529.785V300.937Z" fill="white"/>
<path opacity="0.28" d="M524.689 300.937H528.418V304.664H524.689V300.937Z" fill="white"/>
<path opacity="0.02" d="M519.593 300.937H523.322V304.664H519.593V300.937Z" fill="white"/>
<path opacity="0.17" d="M514.497 300.937H518.226V304.664H514.497V300.937Z" fill="white"/>
<path opacity="0.42" d="M509.401 300.937H513.13V304.664H509.401V300.937Z" fill="white"/>
<path opacity="0.13" d="M534.881 306.03H538.609V309.757H534.881V306.03Z" fill="white"/>
<path opacity="0.11" d="M524.689 306.03H528.418V309.757H524.689V306.03Z" fill="white"/>
<path opacity="0.02" d="M519.593 306.03H523.322V309.757H519.593V306.03Z" fill="white"/>
<path opacity="0.3" d="M509.401 306.03H513.13V309.757H509.401V306.03Z" fill="white"/>
<path opacity="0.08" d="M514.497 234.851H518.226V238.577H514.497V234.851Z" fill="white"/>
<path opacity="0.1" d="M529.785 239.944H533.514V243.671H529.785V239.944Z" fill="white"/>
<path opacity="0.08" d="M514.497 245.037H518.226V248.764H514.497V245.037Z" fill="white"/>
<path opacity="0.1" d="M529.785 250.13H533.514V253.857H529.785V250.13Z" fill="white"/>
<path opacity="0.01" d="M509.401 250.13H513.13V253.857H509.401V250.13Z" fill="white"/>
<path opacity="0.17" d="M534.881 255.223H538.609V258.95H534.881V255.223Z" fill="white"/>
<path opacity="0.01" d="M529.785 255.223H533.514V258.95H529.785V255.223Z" fill="white"/>
<path opacity="0.15" d="M524.689 255.223H528.418V258.95H524.689V255.223Z" fill="white"/>
<path opacity="0.12" d="M509.401 255.223H513.13V258.95H509.401V255.223Z" fill="white"/>
<path opacity="0.13" d="M519.593 265.409H523.322V269.136H519.593V265.409Z" fill="white"/>
<path opacity="0.07" d="M509.401 265.409H513.13V269.136H509.401V265.409Z" fill="white"/>
<path opacity="0.13" d="M534.881 275.471H538.609V279.198H534.881V275.471Z" fill="white"/>
<path opacity="0.02" d="M524.689 275.471H528.418V279.198H524.689V275.471Z" fill="white"/>
<path opacity="0.02" d="M519.593 275.471H523.322V279.198H519.593V275.471Z" fill="white"/>
<path opacity="0.14" d="M514.497 275.471H518.226V279.198H514.497V275.471Z" fill="white"/>
<path opacity="0.09" d="M524.689 285.658H528.418V289.385H524.689V285.658Z" fill="white"/>
<path opacity="0.02" d="M514.497 285.658H518.226V289.385H514.497V285.658Z" fill="white"/>
<path opacity="0.19" d="M524.689 290.751H528.418V294.477H524.689V290.751Z" fill="white"/>
<path opacity="0.06" d="M514.497 290.751H518.226V294.477H514.497V290.751Z" fill="white"/>
<path opacity="0.16" d="M524.689 295.844H528.418V299.571H524.689V295.844Z" fill="white"/>
<path opacity="0.19" d="M529.785 306.03H533.514V309.757H529.785V306.03Z" fill="white"/>
<path opacity="0.04" d="M514.497 306.03H518.226V309.757H514.497V306.03Z" fill="white"/>
<g opacity="0.7">
<path opacity="0.7" d="M499.085 232.739H502.938V324.291H499.085V232.739Z" fill="#E6E6E6"/>
<path opacity="0.7" d="M492.497 232.739H496.351V324.291H492.497V232.739Z" fill="#E6E6E6"/>
<path opacity="0.7" d="M485.786 232.739H489.639V324.291H485.786V232.739Z" fill="#E6E6E6"/>
<path opacity="0.7" d="M479.074 232.739H482.927V324.291H479.074V232.739Z" fill="#E6E6E6"/>
<path opacity="0.7" d="M472.362 232.739H476.215V324.291H472.362V232.739Z" fill="#E6E6E6"/>
</g>
<path d="M584.224 169.261L591.93 148.889L571.298 169.261H584.224Z" fill="#4D4D4D"/>
<path d="M602.247 169.261L591.93 148.889L584.224 169.261H602.247Z" fill="#333333"/>
<path d="M584.224 169.261H602.247V191H584.224V169.261Z" fill="#333333"/>
<path d="M571.298 169.261H584.224V191H571.298V169.261Z" fill="#4D4D4D"/>
<path d="M565.954 267.024H620.517V329.508H565.954V267.024Z" fill="#333333"/>
<path d="M573.411 222.304H612.936V267.024H573.411V222.304Z" fill="#333333"/>
<path d="M579.128 177.584H607.218V222.304H579.128V177.584Z" fill="#333333"/>
<path d="M559.863 177.584H579.253V222.304H559.863V177.584Z" fill="#4D4D4D"/>
<path d="M532.395 267.024H565.954V329.508H532.395V267.024Z" fill="#4D4D4D"/>
<path d="M547.931 222.304H573.411V267.024H547.931V222.304Z" fill="#4D4D4D"/>
<path opacity="0.53" d="M566.575 180.814H572.417V186.652H566.575V180.814Z" fill="white"/>
<path opacity="0.34" d="M566.575 188.143H572.417V193.981H566.575V188.143Z" fill="white"/>
<path opacity="0.9" d="M566.575 195.348H572.417V201.186H566.575V195.348Z" fill="white"/>
<path opacity="0.14" d="M566.575 202.553H572.417V208.391H566.575V202.553Z" fill="white"/>
<path d="M566.575 209.882H572.417V215.72H566.575V209.882Z" fill="white"/>
<path opacity="0.29" d="M562.225 226.155H568.067V231.993H562.225V226.155Z" fill="white"/>
<path opacity="0.81" d="M553.276 226.155H559.118V231.993H553.276V226.155Z" fill="white"/>
<path opacity="0.18" d="M562.225 233.484H568.067V239.323H562.225V233.484Z" fill="white"/>
<path opacity="0.41" d="M553.276 233.484H559.118V239.323H553.276V233.484Z" fill="white"/>
<path opacity="0.03" d="M553.276 240.938H559.118V246.776H553.276V240.938Z" fill="white"/>
<path opacity="0.85" d="M562.225 248.391H568.067V254.229H562.225V248.391Z" fill="white"/>
<path opacity="0.06" d="M553.276 248.391H559.118V254.229H553.276V248.391Z" fill="white"/>
<path opacity="0.94" d="M562.225 255.72H568.067V261.558H562.225V255.72Z" fill="white"/>
<path opacity="0.25" d="M553.276 255.72H559.118V261.558H553.276V255.72Z" fill="white"/>
<path opacity="0.6" d="M554.022 270.875H559.863V276.713H554.022V270.875Z" fill="white"/>
<path opacity="0.83" d="M546.191 270.875H552.033V276.713H546.191V270.875Z" fill="white"/>
<path opacity="0.74" d="M538.361 270.875H544.203V276.713H538.361V270.875Z" fill="white"/>
<path opacity="0.35" d="M546.191 277.956H552.033V283.794H546.191V277.956Z" fill="white"/>
<path opacity="0.54" d="M538.361 277.956H544.203V283.794H538.361V277.956Z" fill="white"/>
<path opacity="0.2" d="M554.022 285.036H559.863V290.875H554.022V285.036Z" fill="white"/>
<path opacity="0.04" d="M546.191 285.036H552.033V290.875H546.191V285.036Z" fill="white"/>
<path opacity="0.86" d="M538.361 285.036H544.203V290.875H538.361V285.036Z" fill="white"/>
<path opacity="0.06" d="M554.022 292.117H559.863V297.956H554.022V292.117Z" fill="white"/>
<path opacity="0.01" d="M546.191 292.117H552.033V297.956H546.191V292.117Z" fill="white"/>
<path opacity="0.39" d="M538.361 292.117H544.203V297.956H538.361V292.117Z" fill="white"/>
<path opacity="0.1" d="M554.022 299.322H559.863V305.16H554.022V299.322Z" fill="white"/>
<path d="M546.191 299.322H552.033V305.16H546.191V299.322Z" fill="white"/>
<path opacity="0.62" d="M538.361 299.322H544.203V305.16H538.361V299.322Z" fill="white"/>
<path opacity="0.48" d="M554.022 306.651H559.863V312.49H554.022V306.651Z" fill="white"/>
<path opacity="0.27" d="M546.191 306.651H552.033V312.49H546.191V306.651Z" fill="white"/>
<path opacity="0.42" d="M538.361 306.651H544.203V312.49H538.361V306.651Z" fill="white"/>
<path opacity="0.27" d="M608.834 270.875H614.676V276.713H608.834V270.875Z" fill="white"/>
<path opacity="0.11" d="M602.247 226.155H608.088V231.993H602.247V226.155Z" fill="white"/>
<path opacity="0.41" d="M597.648 180.814H603.49V186.652H597.648V180.814Z" fill="white"/>
<path opacity="0.38" d="M590.315 180.814H596.156V186.652H590.315V180.814Z" fill="white"/>
<path opacity="0.02" d="M582.857 180.814H588.699V186.652H582.857V180.814Z" fill="white"/>
<path opacity="0.46" d="M597.648 188.143H603.49V193.981H597.648V188.143Z" fill="white"/>
<path opacity="0.31" d="M590.315 188.143H596.156V193.981H590.315V188.143Z" fill="white"/>
<path opacity="0.61" d="M582.857 188.143H588.699V193.981H582.857V188.143Z" fill="white"/>
<path opacity="0.03" d="M597.648 195.348H603.49V201.186H597.648V195.348Z" fill="white"/>
<path opacity="0.03" d="M590.315 195.348H596.156V201.186H590.315V195.348Z" fill="white"/>
<path opacity="0.46" d="M582.857 195.348H588.699V201.186H582.857V195.348Z" fill="white"/>
<path opacity="0.32" d="M597.648 202.553H603.49V208.391H597.648V202.553Z" fill="white"/>
<path opacity="0.14" d="M590.315 202.553H596.156V208.391H590.315V202.553Z" fill="white"/>
<path opacity="0.3" d="M582.857 202.553H588.699V208.391H582.857V202.553Z" fill="white"/>
<path opacity="0.04" d="M597.648 209.882H603.49V215.72H597.648V209.882Z" fill="white"/>
<path opacity="0.64" d="M590.315 209.882H596.156V215.72H590.315V209.882Z" fill="white"/>
<path opacity="0.05" d="M582.857 209.882H588.699V215.72H582.857V209.882Z" fill="white"/>
<path opacity="0.15" d="M594.789 226.155H600.631V231.993H594.789V226.155Z" fill="white"/>
<path opacity="0.15" d="M587.332 226.155H593.173V231.993H587.332V226.155Z" fill="white"/>
<path opacity="0.52" d="M579.999 226.155H585.84V231.993H579.999V226.155Z" fill="white"/>
<path opacity="0.58" d="M602.247 233.484H608.088V239.323H602.247V233.484Z" fill="white"/>
<path opacity="0.62" d="M594.789 233.484H600.631V239.323H594.789V233.484Z" fill="white"/>
<path opacity="0.04" d="M587.332 233.484H593.173V239.323H587.332V233.484Z" fill="white"/>
<path opacity="0.06" d="M579.999 233.484H585.84V239.323H579.999V233.484Z" fill="white"/>
<path opacity="0.3" d="M602.247 240.938H608.088V246.776H602.247V240.938Z" fill="white"/>
<path opacity="0.01" d="M594.789 240.938H600.631V246.776H594.789V240.938Z" fill="white"/>
<path opacity="0.37" d="M587.332 240.938H593.173V246.776H587.332V240.938Z" fill="white"/>
<path opacity="0.62" d="M579.999 240.938H585.84V246.776H579.999V240.938Z" fill="white"/>
<path opacity="0.54" d="M602.247 248.391H608.088V254.229H602.247V248.391Z" fill="white"/>
<path opacity="0.21" d="M594.789 248.391H600.631V254.229H594.789V248.391Z" fill="white"/>
<path opacity="0.41" d="M587.332 248.391H593.173V254.229H587.332V248.391Z" fill="white"/>
<path opacity="0.1" d="M579.999 248.391H585.84V254.229H579.999V248.391Z" fill="white"/>
<path opacity="0.17" d="M602.247 255.72H608.088V261.558H602.247V255.72Z" fill="white"/>
<path opacity="0.17" d="M594.789 255.72H600.631V261.558H594.789V255.72Z" fill="white"/>
<path opacity="0.13" d="M587.332 255.72H593.173V261.558H587.332V255.72Z" fill="white"/>
<path opacity="0.5" d="M579.999 255.72H585.84V261.558H579.999V255.72Z" fill="white"/>
<path opacity="0.06" d="M601.377 270.875H607.218V276.713H601.377V270.875Z" fill="white"/>
<path opacity="0.27" d="M594.043 270.875H599.885V276.713H594.043V270.875Z" fill="white"/>
<path opacity="0.51" d="M586.586 270.875H592.428V276.713H586.586V270.875Z" fill="white"/>
<path opacity="0.42" d="M579.128 270.875H584.97V276.713H579.128V270.875Z" fill="white"/>
<path opacity="0.64" d="M571.795 270.875H577.637V276.713H571.795V270.875Z" fill="white"/>
<path opacity="0.29" d="M608.834 277.956H614.676V283.794H608.834V277.956Z" fill="white"/>
<path opacity="0.6" d="M601.377 277.956H607.218V283.794H601.377V277.956Z" fill="white"/>
<path opacity="0.2" d="M594.043 277.956H599.885V283.794H594.043V277.956Z" fill="white"/>
<path opacity="0.24" d="M586.586 277.956H592.428V283.794H586.586V277.956Z" fill="white"/>
<path opacity="0.62" d="M579.128 277.956H584.97V283.794H579.128V277.956Z" fill="white"/>
<path opacity="0.62" d="M571.795 277.956H577.637V283.794H571.795V277.956Z" fill="white"/>
<path opacity="0.25" d="M608.834 285.036H614.676V290.875H608.834V285.036Z" fill="white"/>
<path opacity="0.36" d="M601.377 285.036H607.218V290.875H601.377V285.036Z" fill="white"/>
<path opacity="0.16" d="M594.043 285.036H599.885V290.875H594.043V285.036Z" fill="white"/>
<path opacity="0.1" d="M586.586 285.036H592.428V290.875H586.586V285.036Z" fill="white"/>
<path opacity="0.04" d="M579.128 285.036H584.97V290.875H579.128V285.036Z" fill="white"/>
<path opacity="0.44" d="M571.795 285.036H577.637V290.875H571.795V285.036Z" fill="white"/>
<path opacity="0.68" d="M608.834 292.117H614.676V297.956H608.834V292.117Z" fill="white"/>
<path opacity="0.01" d="M601.377 292.117H607.218V297.956H601.377V292.117Z" fill="white"/>
<path opacity="0.29" d="M594.043 292.117H599.885V297.956H594.043V292.117Z" fill="white"/>
<path opacity="0.66" d="M586.586 292.117H592.428V297.956H586.586V292.117Z" fill="white"/>
<path opacity="0.12" d="M579.128 292.117H584.97V297.956H579.128V292.117Z" fill="white"/>
<path opacity="0.34" d="M571.795 292.117H577.637V297.956H571.795V292.117Z" fill="white"/>
<path opacity="0.36" d="M608.834 299.322H614.676V305.16H608.834V299.322Z" fill="white"/>
<path opacity="0.5" d="M601.377 299.322H607.218V305.16H601.377V299.322Z" fill="white"/>
<path opacity="0.07" d="M594.043 299.322H599.885V305.16H594.043V299.322Z" fill="white"/>
<path opacity="0.64" d="M586.586 299.322H592.428V305.16H586.586V299.322Z" fill="white"/>
<path opacity="0.4" d="M579.128 299.322H584.97V305.16H579.128V299.322Z" fill="white"/>
<path opacity="0.27" d="M571.795 299.322H577.637V305.16H571.795V299.322Z" fill="white"/>
<path opacity="0.09" d="M608.834 306.651H614.676V312.49H608.834V306.651Z" fill="white"/>
<path opacity="0.47" d="M601.377 306.651H607.218V312.49H601.377V306.651Z" fill="white"/>
<path opacity="0.57" d="M594.043 306.651H599.885V312.49H594.043V306.651Z" fill="white"/>
<path opacity="0.12" d="M586.586 306.651H592.428V312.49H586.586V306.651Z" fill="white"/>
<path opacity="0.23" d="M579.128 306.651H584.97V312.49H579.128V306.651Z" fill="white"/>
<path opacity="0.36" d="M571.795 306.651H577.637V312.49H571.795V306.651Z" fill="white"/>
<path d="M447.131 324.291H524.44L447.131 256.962V324.291Z" fill="#333333"/>
<path d="M612.936 325.657H720.075L612.936 232.49V325.657Z" fill="#333333"/>
<path d="M455.707 308.887H478.328V315.844H455.707V308.887Z" fill="#4D4D4D"/>
<path d="M458.317 310.999H475.842L469.752 300.813H464.408L458.317 310.999Z" fill="#4D4D4D"/>
<path d="M552.406 318.701C552.406 323.545 556.259 327.52 560.982 327.52C565.705 327.52 569.558 323.545 569.558 318.701C569.558 313.856 565.705 309.881 560.982 309.881C556.259 309.757 552.406 313.732 552.406 318.701Z" fill="#333333"/>
<path d="M321.597 314.85C321.597 318.08 324.207 320.813 327.315 320.813C330.422 320.813 333.032 318.204 333.032 314.85C333.032 311.62 330.422 308.887 327.315 308.887C324.207 308.887 321.597 311.62 321.597 314.85Z" fill="#333333"/>
<path d="M521.83 315.222C521.83 318.576 524.44 321.309 527.796 321.309C531.028 321.309 533.762 318.576 533.762 315.222C533.762 311.868 531.152 309.135 527.796 309.135C524.44 309.135 521.83 311.868 521.83 315.222Z" fill="#333333"/>
</svg>
